<svg id="company_1_" data-name="company (1)" xmlns="http://www.w3.org/2000/svg" width="32.03" height="39.05" viewBox="0 0 32.03 39.05">
  <path id="Path_3421" data-name="Path 3421" d="M56.641,148.011c-5.812-.034-10.619-11.9-10.619-17.939,0-9.87,7.4-12.03,10.257-12.03a11.8,11.8,0,0,1,3.87.952,8.65,8.65,0,0,0,2.21.633,6.877,6.877,0,0,0,1.585-.514,12.706,12.706,0,0,1,4.778-1.155h.011a9.794,9.794,0,0,1,8.2,4.139l.6.9-.86.649a7.239,7.239,0,0,0-3.471,5.969,6.738,6.738,0,0,0,3.759,6.229c.539.324,1.1.658,1.1,1.389,0,.477-3.808,10.721-9.337,10.721a7.508,7.508,0,0,1-3.153-.765,6.393,6.393,0,0,0-2.806-.676,7.218,7.218,0,0,0-2.222.6,10.884,10.884,0,0,1-3.854.9Z" transform="translate(-46.022 -108.961)" fill="#fff"/>
  <path id="Path_3422" data-name="Path 3422" d="M262.491,0c.144,5.192-3.569,8.794-7.278,8.568C254.6,4.425,258.921,0,262.491,0Z" transform="translate(-239.204)" fill="#fff"/>
</svg>
