<svg xmlns="http://www.w3.org/2000/svg" width="36.032" height="29.576" viewBox="0 0 36.032 29.576">
  <g id="envelope" transform="translate(0 0)">
    <g id="Group_24" data-name="Group 24" transform="translate(0 0)">
      <path id="Path_14146" data-name="Path 14146" d="M31.633,57.75H4.406A4.593,4.593,0,0,0,0,62.5V82.574a4.593,4.593,0,0,0,4.406,4.752H31.626a4.593,4.593,0,0,0,4.406-4.752V62.51A4.59,4.59,0,0,0,31.633,57.75Zm2.393,24.824a2.5,2.5,0,0,1-2.393,2.581H4.406a2.5,2.5,0,0,1-2.393-2.581V62.51a2.5,2.5,0,0,1,2.393-2.581H31.626a2.5,2.5,0,0,1,2.393,2.581V82.574Z" transform="translate(0 -57.75)" fill="#acacac"/>
      <path id="Path_14147" data-name="Path 14147" d="M73.883,119.328l8.6-8.524a1.173,1.173,0,0,0,.073-1.536.923.923,0,0,0-1.39-.08L69.3,120.952l-2.315-2.284c-.007-.008-.015-.016-.015-.024a1.511,1.511,0,0,0-.16-.153l-9.42-9.312a.918.918,0,0,0-1.39.088,1.165,1.165,0,0,0,.08,1.536l8.707,8.6-8.67,8.966a1.172,1.172,0,0,0-.044,1.536.963.963,0,0,0,.721.346.935.935,0,0,0,.67-.289l8.8-9.095,2.388,2.356a.913.913,0,0,0,1.31-.008l2.453-2.428,8.75,9.183a.928.928,0,0,0,.677.3.939.939,0,0,0,.713-.338,1.172,1.172,0,0,0-.036-1.536Z" transform="translate(-51.269 -104.789)" fill="#acacac"/>
    </g>
  </g>
</svg>
