<svg id="search" xmlns="http://www.w3.org/2000/svg" width="36.983" height="36.983" viewBox="0 0 36.983 36.983">
  <g id="Group_14" data-name="Group 14">
    <path id="Path_10" data-name="Path 10" d="M8.2,150.63l-1.287,4.806-4.705.1a18.524,18.524,0,0,1-.136-17.267h0l4.189.768L8.092,143.2a11.036,11.036,0,0,0,.1,7.43Z" transform="translate(0 -128.281)" fill="#fbbb00"/>
    <path id="Path_11" data-name="Path 11" d="M279.39,208.176a18.484,18.484,0,0,1-6.592,17.875h0l-5.276-.269-.747-4.661a11.021,11.021,0,0,0,4.742-5.628h-9.888v-7.315H279.39Z" transform="translate(-242.73 -193.139)" fill="#518ef8"/>
    <path id="Path_12" data-name="Path 12" d="M58.372,319.97h0a18.5,18.5,0,0,1-27.864-5.657l5.992-4.905a11,11,0,0,0,15.848,5.631Z" transform="translate(-28.305 -287.06)" fill="#28b446"/>
    <path id="Path_13" data-name="Path 13" d="M56.851,4.257l-5.99,4.9a11,11,0,0,0-16.211,5.758L28.625,9.987h0a18.5,18.5,0,0,1,28.227-5.73Z" transform="translate(-26.556)" fill="#f14336"/>
  </g>
</svg>
