<svg xmlns="http://www.w3.org/2000/svg" width="326.722" height="98.62" viewBox="0 0 326.722 98.62">
  <g id="Group_37811" data-name="Group 37811" transform="translate(-1133.968 -554.091)">
    <g id="Group_37230" data-name="Group 37230" transform="translate(1133.968 554.091)">
      <path id="Subtraction_22" data-name="Subtraction 22" d="M12.723,54.883H0a176.572,176.572,0,0,1,12.33-20.6A179.485,179.485,0,0,1,34.569,8.094c2.857-2.776,5.854-5.5,8.907-8.094l7.376,7.964A167.763,167.763,0,0,0,12.724,54.882h0Z" transform="translate(0 43.737)" fill="#e03c8a"/>
      <path id="Subtraction_25" data-name="Subtraction 25" d="M7.008,41.167v0h0L0,32.937c3.8-2.953,7.764-5.784,11.77-8.413A183.848,183.848,0,0,1,67.585,0l4.333,9.709A170.919,170.919,0,0,0,7.008,41.167Z" transform="translate(49.754 5.699)" fill="#e03c8a"/>
      <path id="Subtraction_28" data-name="Subtraction 28" d="M74.285,14.217h0a175.415,175.415,0,0,0-70.452-.523L0,3.812l.12-.025L1.076,3.6A189.223,189.223,0,0,1,74.5,3.6c.516.1,1.04.209,1.557.317l-1.767,10.3Z" transform="translate(125.576 0)" fill="#e03c8a"/>
      <path id="Subtraction_31" data-name="Subtraction 31" d="M70.511,46.5A172.67,172.67,0,0,0,0,10.02L3.084,0A185.347,185.347,0,0,1,28.466,8.335,183.894,183.894,0,0,1,59.4,24.651,183.316,183.316,0,0,1,74.818,35.968L70.512,46.5Z" transform="translate(205.795 5.571)" fill="#d8d8d8"/>
      <path id="Subtraction_34" data-name="Subtraction 34" d="M31.083,52.032h0A167.979,167.979,0,0,0,0,11.5L3.6,0C5.522,1.71,7.417,3.474,9.238,5.243A179.56,179.56,0,0,1,31.477,31.431,176.549,176.549,0,0,1,43.8,52.03Z" transform="translate(282.917 46.587)" fill="#d8d8d8"/>
    </g>
    <g id="Group_37463" data-name="Group 37463" transform="translate(1162.721 560.973)">
      <g id="Group_37457" data-name="Group 37457" transform="translate(0 69.172) rotate(-8)">
        <path id="Path_50852" data-name="Path 50852" d="M2.128.022c.037-.036.065-.029.088.02s.047.09.083.149a.99.99,0,0,1,.077.153q.207.588.415,1.157t.473,1.207q.294.3.579.609a7.15,7.15,0,0,0,.6.584c.039.034.07.062.093.085l.068.069.068.069c.023.023.054.052.093.085a.525.525,0,0,1,.066.057l.066.067c.017.017.025.027.024.029a.1.1,0,0,1-.019.034,1.964,1.964,0,0,1-.145.162l-.124.122L4.514,4.8c-.044.042-.093.094-.15.156-.014.02-.022.03-.025.03s-.013-.008-.029-.025L4.2,4.856c-.03-.03-.056-.058-.081-.087L4.044,4.68c-.028-.032-.063-.069-.105-.112s-.1-.1-.146-.145S3.7,4.336,3.645,4.28q-.137-.139-.276-.271c-.093-.088-.185-.181-.276-.281l-.086-.092c-.034-.038-.073-.078-.117-.12S2.8,3.436,2.756,3.4a.811.811,0,0,0-.128-.085C2.6,3.3,2.546,3.28,2.461,3.249l-.312-.108L1.741,3q-.224-.079-.452-.167T.841,2.652C.7,2.589.567,2.529.456,2.469.4,2.435.328,2.395.25,2.349L.039,2.223C.013,2.21,0,2.2,0,2.193a.106.106,0,0,1,.02-.039c.043-.055.08-.1.109-.147s.062-.083.1-.122l.112-.13c.042-.047.1-.105.166-.173a.2.2,0,0,1,.035-.03c.006,0,.021,0,.044.01q.456.226.9.431t.928.456q-.223-.495-.389-.967T1.68.63l-.044-.1C1.626.5,1.622.491,1.624.489L1.651.462,1.785.33a1.093,1.093,0,0,1,.1-.093c.033-.026.068-.055.1-.088S2.075.075,2.128.022Z" transform="matrix(0.998, -0.07, 0.07, 0.998, 0, 12.583)" fill="#e03c8a"/>
        <path id="Path_50853" data-name="Path 50853" d="M2.2.374q.294.259.546.529t.488.537a1.461,1.461,0,0,1,.194.456,1.358,1.358,0,0,1,.027.469,1.21,1.21,0,0,1-.142.438A1.112,1.112,0,0,1,3,3.16a1.926,1.926,0,0,1-.736.335,1.308,1.308,0,0,1-.633-.038,1.882,1.882,0,0,1-.584-.321Q.765,2.913.461,2.624a1.672,1.672,0,0,1-.34-.518A1.565,1.565,0,0,1,0,1.523,1.531,1.531,0,0,1,.111.941,1.51,1.51,0,0,1,.461.42,1.542,1.542,0,0,1,.918.091,1,1,0,0,1,1.362,0,1.051,1.051,0,0,1,1.788.11,2.246,2.246,0,0,1,2.2.374Zm-1.142.5a.815.815,0,0,0-.288.592.835.835,0,0,0,.254.586q.044.045.129.141a2.585,2.585,0,0,0,.2.2,2.368,2.368,0,0,0,.262.2.967.967,0,0,0,.3.135.7.7,0,0,0,.321.008.663.663,0,0,0,.317-.182.439.439,0,0,0,.15-.273.618.618,0,0,0-.047-.292,1.238,1.238,0,0,0-.182-.3q-.122-.153-.267-.3-.1-.106-.245-.243A1.849,1.849,0,0,0,1.662.9.9.9,0,0,0,1.343.779.324.324,0,0,0,1.057.873Z" transform="matrix(0.998, -0.07, 0.07, 0.998, 3.757, 11.752)" fill="#e03c8a"/>
        <path id="Path_50854" data-name="Path 50854" d="M3.223,1.066c.113.117.227.235.34.355s.228.236.345.351l.177.173.177.174c.069.069.137.139.2.211l.193.211c.037.047.042.087.015.119A3.019,3.019,0,0,0,4.49,2.9a1.262,1.262,0,0,1-.187.218.068.068,0,0,1-.094.011c-.042-.032-.083-.061-.125-.09l-.129-.085a.239.239,0,0,0-.092-.038c-.03,0-.048.013-.057.051a1.726,1.726,0,0,1-.264.687,1.3,1.3,0,0,1-.5.46,1.065,1.065,0,0,1-.661.094A1.452,1.452,0,0,1,1.633,3.8Q1.245,3.428.89,3.062T.2,2.306A.99.99,0,0,0,.1,2.2a.641.641,0,0,1-.091-.115.055.055,0,0,1,0-.069c.085-.078.175-.164.27-.257s.184-.178.27-.257Q.586,1.46.6,1.461c.01,0,.029.013.057.037.142.155.269.291.382.411l.324.342q.153.162.312.319t.353.339a1.15,1.15,0,0,0,.425.253.613.613,0,0,0,.342.013.431.431,0,0,0,.234-.168.6.6,0,0,0,.107-.292.875.875,0,0,0-.041-.354A.949.949,0,0,0,2.881,2c-.08-.1-.149-.183-.2-.243l-.21-.229q-.268-.313-.547-.6C1.849.857,1.789.8,1.742.751S1.653.664,1.619.627,1.567.565,1.568.555A.2.2,0,0,1,1.62.484L1.777.34q.059-.054.11-.1L2,.152c.04-.033.089-.078.151-.134a.049.049,0,0,1,.079,0c.028.031.057.061.087.09S2.373.171,2.4.2q.222.242.425.443C2.962.779,3.095.919,3.223,1.066Z" transform="matrix(0.998, -0.07, 0.07, 0.998, 5.442, 8.774)" fill="#e03c8a"/>
        <path id="Path_50855" data-name="Path 50855" d="M4.451,2.634c.021.025.032.04.031.046a.192.192,0,0,1-.029.052l-.108.12c-.025.028-.049.056-.071.084a.814.814,0,0,1-.086.092c-.035.034-.087.079-.154.137a.054.054,0,0,1-.064.01A.931.931,0,0,1,3.876,3.1a.089.089,0,0,0-.1-.018,1.5,1.5,0,0,1-.2.365,2.539,2.539,0,0,1-.331.37,2.628,2.628,0,0,1-.428.321,2.022,2.022,0,0,1-.494.216,1.469,1.469,0,0,1-.528.053,1.218,1.218,0,0,1-.526-.17,2.987,2.987,0,0,1-.683-.5,2.289,2.289,0,0,1-.451-.678,1.366,1.366,0,0,1-.115-.773A1.481,1.481,0,0,1,.3,1.633a2.17,2.17,0,0,1,.559-.515,3.51,3.51,0,0,1,.71-.355c.033,0,.051-.009.051-.016A.159.159,0,0,0,1.581.694l-.1-.122C1.461.554,1.465.537,1.486.519,1.55.458,1.6.409,1.645.373l.117-.1c.035-.03.073-.061.114-.092S1.968.1,2.032.042C2.068.012,2.088,0,2.092,0A.305.305,0,0,1,2.14.05l.169.181c.048.053.1.115.163.186q.114.123.228.25t.228.25q.443.475.807.889T4.451,2.634Zm-2.34-1.32c-.009-.011-.056.008-.14.056s-.181.105-.288.173-.213.14-.318.217-.184.139-.238.184A.546.546,0,0,0,.961,2.3a1.08,1.08,0,0,0,.051.419,1.393,1.393,0,0,0,.2.386.884.884,0,0,0,.272.259A.8.8,0,0,0,2.04,3.5a1.11,1.11,0,0,0,.483-.2,1.843,1.843,0,0,0,.385-.381,4.529,4.529,0,0,0,.271-.392s-.014-.03-.05-.081-.088-.111-.152-.182L2.76,2.025l-.239-.268c-.079-.09-.154-.173-.228-.251S2.16,1.364,2.111,1.314Z" transform="matrix(0.998, -0.07, 0.07, 0.998, 10.486, 3.755)" fill="#e03c8a"/>
        <path id="Path_50856" data-name="Path 50856" d="M.527,1.686.1,1.158C.087,1.136.071,1.115.057,1.093S.027,1.05.01,1.028A.031.031,0,0,1,.015.979C.086.934.148.894.2.859S.3.787.35.751L.5.643C.545.607.6.568.651.524.673.506.694.51.714.536S.772.607.8.64s.06.067.093.1S.943.783.952.783.976.767,1,.736L1.163.528C1.207.472,1.252.42,1.3.372s.1-.1.15-.152l.211-.2A.083.083,0,0,1,1.734,0,.251.251,0,0,1,1.8.05c.026.033.062.071.106.116L2.041.3c.046.047.091.093.133.139a.884.884,0,0,1,.1.122C2.294.583,2.3.6,2.3.6S2.291.621,2.27.639A3.271,3.271,0,0,0,2.011.85a1.907,1.907,0,0,0-.245.263.9.9,0,0,0-.146.269.233.233,0,0,0,.036.23c.015.018.033.043.057.076s.048.065.075.1l.079.1.063.079c.088.125.174.238.257.338l.243.292q.119.142.236.289t.242.325a.34.34,0,0,1,.034.07c.006.019,0,.038-.029.058-.086.064-.177.138-.272.223s-.183.159-.263.224c-.05.064-.1.061-.158-.008s-.114-.144-.168-.215-.109-.141-.167-.214q-.4-.506-.732-.9T.527,1.686Z" transform="matrix(0.998, -0.07, 0.07, 0.998, 13.018, 2.142)" fill="#e03c8a"/>
        <path id="Path_50857" data-name="Path 50857" d="M1.228,2.2l-.034.036s0,.015.02.037a2.459,2.459,0,0,0,.242.226.776.776,0,0,0,.278.148.746.746,0,0,0,.331.018,1.137,1.137,0,0,0,.4-.16,1.049,1.049,0,0,0,.2-.218.9.9,0,0,0,.1-.22A.708.708,0,0,0,2.8,1.86a1.159,1.159,0,0,0-.016-.183c-.014-.054-.018-.084-.012-.088a.778.778,0,0,1,.076-.033c.045-.018.08-.03.1-.038a.693.693,0,0,0,.1-.038l.31-.114c.028-.01.045-.013.051-.009a.089.089,0,0,1,.02.042,1.587,1.587,0,0,1,.039.81,1.559,1.559,0,0,1-.3.626,1.757,1.757,0,0,1-.512.43,1.9,1.9,0,0,1-.586.216,1.67,1.67,0,0,1-.856-.174,2.363,2.363,0,0,1-.666-.54,4.336,4.336,0,0,1-.355-.6,1.906,1.906,0,0,1-.184-.624A1.342,1.342,0,0,1,.088.919,1.474,1.474,0,0,1,.538.325a1.078,1.078,0,0,1,.47-.271A1.537,1.537,0,0,1,1.539.005a1.659,1.659,0,0,1,.512.128,1.454,1.454,0,0,1,.406.252,2.327,2.327,0,0,1,.228.238c.068.082.135.163.2.243.02.026.019.047,0,.064q-.268.213-.408.315c-.093.069-.179.134-.256.194s-.144.106-.241.179l-.288.22c-.1.074-.186.143-.27.21ZM.812,1.666c.005.008.041-.015.106-.067s.136-.111.212-.177.145-.127.211-.182l.1-.087L1.9.793a.6.6,0,0,0-.488-.2A.814.814,0,0,0,.969.811.781.781,0,0,0,.828.987a.815.815,0,0,0-.1.222.653.653,0,0,0-.017.236A.427.427,0,0,0,.812,1.666Z" transform="matrix(0.998, -0.07, 0.07, 0.998, 15.357, 0.245)" fill="#e03c8a"/>
      </g>
      <g id="Group_37458" data-name="Group 37458" transform="translate(41.03 28.422) rotate(-9)">
        <path id="Path_50858" data-name="Path 50858" d="M3.011,3,3,2.955a.148.148,0,0,0-.022-.033s-.013,0-.031.007l-.137.051-.222.082-.222.084a1.113,1.113,0,0,0-.135.057c-.046.021-.1.045-.166.072s-.12.051-.167.072a.127.127,0,0,0-.042.029.117.117,0,0,0,.012.055l.047.139.062.181c.022.064.041.125.059.183s.032.1.044.139l.074.217a2.067,2.067,0,0,1,.062.222,2.251,2.251,0,0,0,.085.281c.033.092.067.184.1.276a1.406,1.406,0,0,0,.039.137c.014.042.03.087.046.135a.3.3,0,0,1,.016.069.024.024,0,0,1-.017.035.171.171,0,0,1-.05.025L2.3,5.516c-.031.011-.059.021-.085.033l-.087.038c-.032.013-.077.03-.134.049q-.06.02-.115.043c-.037.015-.072.029-.108.04s-.06.025-.067.02a.178.178,0,0,1-.028-.06A2.038,2.038,0,0,1,1.6,5.456q-.03-.111-.069-.223c-.022-.066-.043-.132-.06-.2A1.5,1.5,0,0,0,1.4,4.848c-.053-.139-.1-.276-.145-.411s-.091-.269-.142-.4-.109-.3-.159-.443S.855,3.295.8,3.147C.754,3.015.708,2.885.661,2.755S.566,2.5.517,2.367C.5,2.322.488,2.281.474,2.241s-.03-.08-.049-.123C.4,2.039.37,1.96.34,1.882S.282,1.724.256,1.645.2,1.5.172,1.424.119,1.275.089,1.2a1.073,1.073,0,0,1-.043-.1L.01.993C0,.967,0,.95,0,.945S.016.932.038.924C.183.874.293.838.369.815L.542.759C.581.746.614.736.642.729S.709.709.762.691L.8.678A.024.024,0,0,1,.837.7.089.089,0,0,0,.848.717.089.089,0,0,1,.859.739c.037.1.073.188.107.28s.071.185.114.278q.086.206.156.411c.046.137.1.271.153.4.021.048.049.116.082.209s.059.161.075.209c.008.022.015.034.023.037a.1.1,0,0,0,.045-.008l.149-.051c.073-.025.149-.052.23-.082s.157-.057.23-.082l.149-.051c.035-.013.089-.029.162-.052s.128-.04.163-.052a.044.044,0,0,0,.032-.055,8.994,8.994,0,0,0-.326-.92,6.17,6.17,0,0,1-.3-.9.177.177,0,0,1,0-.054c0-.008.014-.016.036-.023L2.323.172,2.475.12,2.626.068,2.811,0c.031-.01.051,0,.06.024l.015.046Q3.1.6,3.294,1.136a4.442,4.442,0,0,0,.187.526,4.274,4.274,0,0,1,.183.512l.123.4a3.717,3.717,0,0,0,.136.377l.106.31c.092.239.175.473.251.7s.153.459.231.687l.022.066a.037.037,0,0,1-.026.054L4.4,4.811l-.165.056-.121.042c-.038.013-.079.026-.123.038s-.1.031-.167.053a.2.2,0,0,1-.088.012c-.009,0-.021-.031-.038-.079Q3.61,4.7,3.519,4.452l-.179-.5q-.089-.249-.173-.493Z" transform="matrix(0.998, -0.07, 0.07, 0.998, 0, 12.935)" fill="#e03c8a"/>
        <path id="Path_50859" data-name="Path 50859" d="M2.626.813c.1.241.189.479.262.714s.142.467.205.7a1.458,1.458,0,0,1-.024.495,1.327,1.327,0,0,1-.18.434,1.192,1.192,0,0,1-.318.333,1.1,1.1,0,0,1-.434.187,1.917,1.917,0,0,1-.808-.019,1.3,1.3,0,0,1-.553-.31A1.879,1.879,0,0,1,.39,2.8Q.23,2.474.083,2.082A1.686,1.686,0,0,1,0,1.467,1.522,1.522,0,0,1,.5.415,1.506,1.506,0,0,1,1.043.1,1.538,1.538,0,0,1,1.6,0a1.008,1.008,0,0,1,.439.112A1.051,1.051,0,0,1,2.372.4,2.225,2.225,0,0,1,2.626.813ZM1.382.766a.81.81,0,0,0-.517.407.83.83,0,0,0-.026.638c.013.04.031.1.055.183a2.448,2.448,0,0,0,.1.269,2.38,2.38,0,0,0,.148.293.97.97,0,0,0,.213.253.692.692,0,0,0,.285.147A.66.66,0,0,0,2,2.931a.443.443,0,0,0,.254-.18.63.63,0,0,0,.085-.283,1.226,1.226,0,0,0-.033-.352q-.043-.192-.106-.39c-.03-.093-.068-.2-.116-.325a1.839,1.839,0,0,0-.172-.344A.9.9,0,0,0,1.68.805.322.322,0,0,0,1.382.766Z" transform="matrix(0.998, -0.07, 0.07, 0.998, 4.365, 13.103)" fill="#e03c8a"/>
        <path id="Path_50860" data-name="Path 50860" d="M3.791,2.891c-.014-.229-.038-.459-.07-.692s-.066-.463-.1-.691-.062-.446-.085-.654A5.026,5.026,0,0,1,3.5.279C3.5.23,3.516.2,3.537.2L3.647.16C3.7.141,3.762.122,3.826.1S3.95.066,4,.047L4.116.011A.112.112,0,0,1,4.171,0,.14.14,0,0,1,4.2.059c.021.105.041.2.058.27A2.5,2.5,0,0,1,4.3.6c.031.219.068.442.112.672a3.367,3.367,0,0,1,.056.35c.013.115.027.233.044.354q.054.405.1.777t.109.774c0,.028.009.057.015.086s.012.061.017.094a.081.081,0,0,1-.07.108l-.371.11c-.122.037-.248.075-.376.118A.1.1,0,0,1,3.815,4q-.124-.124-.263-.271t-.276-.307q-.138-.159-.27-.323c-.088-.109-.17-.217-.244-.321-.014.281-.037.538-.069.773s-.067.477-.1.726a.157.157,0,0,1-.019.085.138.138,0,0,1-.078.031,4.008,4.008,0,0,0-.392.1c-.107.034-.237.069-.391.105a.138.138,0,0,1-.07.009c-.011,0-.026-.022-.045-.056q-.142-.262-.267-.535c-.082-.181-.173-.362-.269-.542Q.964,3.314.885,3.145C.832,3.032.777,2.921.72,2.811a2.742,2.742,0,0,1-.131-.27C.555,2.457.514,2.367.465,2.269c-.039-.08-.075-.158-.109-.233s-.068-.151-.1-.229S.188,1.648.15,1.56s-.084-.19-.138-.3C0,1.225,0,1.2.006,1.195a.124.124,0,0,1,.053-.027C.172,1.14.282,1.11.39,1.081S.607,1.02.719.987c.022-.007.037,0,.044,0l.024.033c.027.06.055.116.082.168s.055.109.082.169l.232.462q.123.246.26.5t.277.507c.094.169.186.327.279.474,0-.146.005-.3.014-.455s.018-.312.027-.462.017-.3.026-.44.014-.273.019-.391a.152.152,0,0,1,0-.054c0-.008.019-.016.051-.026l.13-.039a.547.547,0,0,0,.062-.022L2.39,1.39c.023-.01.067-.023.129-.042a.072.072,0,0,1,.082.033q.126.181.259.349c.089.112.182.226.279.342s.2.241.307.374S3.67,2.728,3.791,2.891Z" transform="matrix(0.998, -0.07, 0.07, 0.998, 7.012, 11.165)" fill="#e03c8a"/>
        <path id="Path_50861" data-name="Path 50861" d="M0,1.526a2.564,2.564,0,0,1,.058-.507A.971.971,0,0,1,.22.666,1.078,1.078,0,0,1,.5.4Q.68.283.933.146A2.356,2.356,0,0,1,1.551,0a1.254,1.254,0,0,1,.508.061A1.376,1.376,0,0,1,2.5.321a3.178,3.178,0,0,1,.415.43,2.4,2.4,0,0,1,.284.493,4.447,4.447,0,0,1,.184.529q.076.273.135.562t.139.6a3.406,3.406,0,0,1-.017.7,2.087,2.087,0,0,1-.178.617,1.672,1.672,0,0,1-.361.5,1.74,1.74,0,0,1-.561.355.067.067,0,0,0-.023.009.063.063,0,0,1-.023.009.881.881,0,0,1-.454.051,1.333,1.333,0,0,1-.594-.127,1.677,1.677,0,0,1-.479-.342,2.173,2.173,0,0,1-.358-.489,2.444,2.444,0,0,1-.222-.565C.34,3.476.294,3.3.244,3.123S.15,2.77.112,2.592.044,2.237.023,2.057A3.233,3.233,0,0,1,0,1.526ZM1.343.8a.565.565,0,0,0-.277.182.924.924,0,0,0-.166.3,1.285,1.285,0,0,0-.064.34,1.064,1.064,0,0,0,.027.317q.039.213.074.405c.018.111.043.225.073.345a2.832,2.832,0,0,0,.09.3l.1.266q.056.147.11.277.068.156.128.306a1.434,1.434,0,0,0,.416.416.615.615,0,0,0,.373.1.513.513,0,0,0,.307-.15.97.97,0,0,0,.218-.333,1.43,1.43,0,0,0,.1-.449A1.621,1.621,0,0,0,2.8,2.909q-.108-.425-.188-.683c-.053-.171-.1-.308-.136-.411s-.069-.182-.093-.239a1.1,1.1,0,0,1-.055-.158.758.758,0,0,0-.138-.274A1.078,1.078,0,0,0,1.952.916a.818.818,0,0,0-.3-.131A.624.624,0,0,0,1.343.8Z" transform="matrix(0.998, -0.07, 0.07, 0.998, 14.262, 7.88)" fill="#e03c8a"/>
        <path id="Path_50862" data-name="Path 50862" d="M.576,2.613q-.082-.346-.159-.7t-.166-.7Q.178.916.119.683T.008.233C0,.2,0,.182,0,.176A.143.143,0,0,1,.052.15C.164.119.256.095.329.076S.5.035.612,0A.043.043,0,0,1,.671.038C.718.194.76.347.8.5S.88.8.926.959q.094.393.17.68t.14.54q.065.254.127.5t.137.559q.07.292.142.579t.142.579c.019.077.034.156.049.236s.026.159.035.239a.068.068,0,0,1-.065.087c-.055.009-.1.017-.14.026L1.55,5.01c-.036.008-.073.019-.111.03a1.089,1.089,0,0,1-.14.03q-.1.023-.116.01c-.014-.009-.029-.044-.044-.108L.8,3.534Z" transform="matrix(0.998, -0.07, 0.07, 0.998, 17.638, 7.123)" fill="#e03c8a"/>
        <path id="Path_50863" data-name="Path 50863" d="M2.793,1.332c.056.25.1.476.145.678s.083.4.125.59q.1.585.24,1.118t.284,1.058a.559.559,0,0,1,.026.08c.006.027.012.055.018.081a.079.079,0,0,1-.055.105l-.3.077c-.09.023-.181.044-.271.065a.179.179,0,0,1-.067-.014A.131.131,0,0,1,2.9,5.108a1.183,1.183,0,0,1-.036-.131,1.11,1.11,0,0,0-.037-.131c-.017-.058-.029-.093-.034-.106s-.031,0-.077.025a2.419,2.419,0,0,1-.489.288,2.944,2.944,0,0,1-.692.212A1.119,1.119,0,0,1,.9,5.225a1.231,1.231,0,0,1-.489-.333A1.59,1.59,0,0,1,.1,4.368a1.614,1.614,0,0,1-.1-.61,1.5,1.5,0,0,1,.145-.6,1.244,1.244,0,0,1,.419-.487A1.124,1.124,0,0,1,.9,2.485a2.371,2.371,0,0,1,.408-.109,2.812,2.812,0,0,1,.423-.041q.213,0,.38.008a.054.054,0,0,0,.059-.024.171.171,0,0,0,.019-.061.238.238,0,0,0-.005-.07c-.006-.025-.01-.044-.013-.058q-.123-.451-.21-.871T1.8.411c-.008-.036-.015-.07-.019-.1S1.77.245,1.763.212a.15.15,0,0,1,0-.04A.094.094,0,0,1,1.8.161c.077-.022.14-.037.189-.046S2.09.1,2.135.086L2.278.054c.05-.011.113-.028.189-.049C2.494,0,2.511,0,2.517,0a.09.09,0,0,1,.016.042c.013.055.024.11.034.164s.02.108.031.157.03.137.045.218.033.167.05.253.034.173.051.26S2.778,1.264,2.793,1.332ZM2.387,3.123c-.015-.025-.066-.044-.152-.056a2.421,2.421,0,0,0-.279-.019c-.12,0-.253,0-.4.011a1.4,1.4,0,0,0-.333.074A1.235,1.235,0,0,0,.9,3.3a.679.679,0,0,0-.218.253.456.456,0,0,0-.016.343.856.856,0,0,0,.439.573.875.875,0,0,0,.751-.075c.013-.008.06-.029.143-.064s.171-.075.266-.12c.112-.049.233-.1.363-.167-.04-.158-.078-.3-.11-.425-.03-.108-.056-.211-.081-.311A1.532,1.532,0,0,0,2.387,3.123Z" transform="matrix(0.998, -0.07, 0.07, 0.998, 19.472, 6.032)" fill="#e03c8a"/>
        <path id="Path_50864" data-name="Path 50864" d="M1.824.063a1.035,1.035,0,0,1,.119-.03l.12-.022c.045-.013.073-.015.085,0a.17.17,0,0,1,.034.068q.17.5.321.946t.3.9q.081.283.153.539t.148.511l.158.527q.083.272.185.593c.026.09.051.177.074.263s.048.173.074.263a1.528,1.528,0,0,1,.05.172,1.494,1.494,0,0,0,.05.171c.009.022.012.035.008.041s-.017.01-.04.015l-.214.05-.16.037c-.05.011-.1.023-.157.033l-.206.038c-.035.011-.056,0-.062-.031q-.134-.45-.245-.894T2.38,3.356a.124.124,0,0,0-.017-.035.087.087,0,0,0-.038,0c-.065.008-.156.022-.272.044l-.36.067L1.343,3.5l-.24.045q-.036,0-.042.043c.009.122.015.229.021.323s.011.186.016.277.012.185.02.28.018.2.032.324c.007.065.013.12.017.164s.007.088.01.133.007.091.012.14.008.108.012.178a.246.246,0,0,1,0,.1.19.19,0,0,1-.084.026Q1,5.548.927,5.566L.783,5.6.64,5.623l-.179.033a.03.03,0,0,1-.04-.027,1.691,1.691,0,0,0-.015-.175C.4,5.4.39,5.341.384,5.28.376,5.187.366,5.1.355,5.009S.334,4.833.327,4.745.306,4.526.294,4.4.27,4.15.261,4.048Q.21,3.434.178,2.971T.115,2.1C.1,1.833.077,1.57.061,1.313S.023.776,0,.473A.1.1,0,0,1,.006.43c0-.005.017-.01.04-.015Q.188.381.333.355L.62.3Q.948.233,1.24.182T1.824.063ZM1.034,2.869l.178-.037.375-.077.54-.111-.272-.928Q1.736,1.305,1.585.8L1.256.856C1.173.871,1.1.887,1.027.9A.474.474,0,0,0,.915.933a.854.854,0,0,0,0,.152c.006.1.013.215.021.358s.015.3.026.464.019.319.029.462.018.262.024.358A.545.545,0,0,0,1.034,2.869Z" transform="matrix(0.998, -0.07, 0.07, 0.998, 25.815, 4.431)" fill="#e03c8a"/>
        <path id="Path_50865" data-name="Path 50865" d="M0,.2C0,.168.006.15.034.145L.423.059Q.58.025.717,0C.74,0,.753,0,.756,0A.193.193,0,0,1,.773.042C.785.111.8.183.816.258A.983.983,0,0,0,.865.423C.87.45.88.456.9.439l.34-.205A1.7,1.7,0,0,1,1.524.094,1.134,1.134,0,0,1,1.813.028a1.528,1.528,0,0,1,.337.01A.116.116,0,0,1,2.2.054a.17.17,0,0,1,.017.064c0,.108.006.216.008.323s.005.209.012.3a.118.118,0,0,1-.018.063.081.081,0,0,1-.046.019c-.089,0-.17,0-.241,0a1.338,1.338,0,0,0-.219,0,1.043,1.043,0,0,0-.238.058,1.949,1.949,0,0,0-.3.146.158.158,0,0,0-.073.128.546.546,0,0,0,0,.145q.026.158.067.377c.026.146.051.274.074.383q.048.282.084.481t.065.346c.019.1.035.183.05.253s.026.139.037.2l.018.11c.008.046-.006.072-.043.078a2.088,2.088,0,0,1-.34.057c-.11.009-.23.025-.363.047a.119.119,0,0,1-.068,0C.672,3.627.662,3.6.656,3.568Q.5,2.93.415,2.336T.2,1.156C.183,1.06.163.964.144.865S.1.668.083.568C.061.491.046.431.035.385S.014.278,0,.2Z" transform="matrix(0.998, -0.07, 0.07, 0.998, 29.558, 5.368)" fill="#e03c8a"/>
        <path id="Path_50866" data-name="Path 50866" d="M2.907,1.608c.006.042-.01.064-.046.07-.055.013-.11.025-.168.036s-.112.023-.167.036c-.1.025-.209.046-.315.065s-.21.04-.315.065l-.225.049c-.086.017-.174.037-.263.057s-.176.039-.263.057l-.219.047a.081.081,0,0,0-.05.018.168.168,0,0,0-.015.063.547.547,0,0,0,.233.423.946.946,0,0,0,.482.156,1.467,1.467,0,0,0,.573-.083,1.28,1.28,0,0,0,.5-.3c.016-.016.033-.012.051.014.048.068.088.125.121.169s.073.1.122.175l.072.106a1.1,1.1,0,0,0,.079.1c.013.022.018.034.016.037a.147.147,0,0,1-.028.022,3.3,3.3,0,0,1-.255.228,1.644,1.644,0,0,1-.325.2,2.061,2.061,0,0,1-.432.15,2.572,2.572,0,0,1-.583.06A1.453,1.453,0,0,1,.71,3.3a1.914,1.914,0,0,1-.5-.654A2.236,2.236,0,0,1,0,1.832a2.089,2.089,0,0,1,.1-.82A1.609,1.609,0,0,1,.542.351,1.426,1.426,0,0,1,1.317,0a1.625,1.625,0,0,1,.672.106A1.424,1.424,0,0,1,2.5.451a1.451,1.451,0,0,1,.314.52A1.721,1.721,0,0,1,2.907,1.608Zm-2.165-.1.652-.162c.081-.022.163-.042.245-.061l.221-.055.167-.043c.045-.011.075-.019.089-.02A1.092,1.092,0,0,0,2.023.963.984.984,0,0,0,1.864.751.669.669,0,0,0,1.644.6.463.463,0,0,0,1.37.579.824.824,0,0,0,1.026.73a.749.749,0,0,0-.2.239.735.735,0,0,0-.085.281A1.121,1.121,0,0,0,.742,1.513Z" transform="matrix(0.998, -0.07, 0.07, 0.998, 32.138, 4.636)" fill="#e03c8a"/>
        <path id="Path_50867" data-name="Path 50867" d="M3.015,0c.05-.006.07.017.057.07s-.017.1-.026.168a1.019,1.019,0,0,1-.033.169Q2.815,1,2.63,1.576T2.263,2.819q.048.415.084.836a7.1,7.1,0,0,0,.118.832c.011.05.018.092.021.124l.011.1.011.1c0,.033.011.074.022.123a.479.479,0,0,1,.017.086c0,.03.007.061.011.093a.1.1,0,0,1,0,.039.117.117,0,0,1-.037.015,1.838,1.838,0,0,1-.213.039l-.173.02-.173.021c-.06.007-.131.017-.214.032-.023.007-.035.01-.038.008A.107.107,0,0,1,1.7,5.242c-.007-.06-.013-.11-.017-.152s-.009-.081-.011-.118l-.007-.118c0-.042-.007-.093-.014-.153-.009-.078-.018-.146-.027-.2s-.018-.126-.027-.2c-.015-.129-.032-.257-.052-.383s-.035-.257-.046-.392c0-.032-.008-.074-.011-.125s-.01-.106-.019-.166-.021-.118-.035-.175a.741.741,0,0,0-.049-.145c-.013-.027-.043-.078-.092-.155s-.108-.168-.18-.277L.882,2.114Q.753,1.914.627,1.7T.385,1.287C.308,1.149.244,1.022.193.906Q.154.812.1.685C.071.6.04.523.015.457,0,.43,0,.414,0,.409A.1.1,0,0,1,.041.39C.109.373.168.356.218.342S.318.313.368.3L.536.269C.6.258.677.246.775.235a.173.173,0,0,1,.045,0c.007,0,.017.014.029.035q.222.459.448.895t.453.929q.129-.527.287-1A9.11,9.11,0,0,0,2.287.2L2.316.1A.11.11,0,0,1,2.329.059l.038,0L2.554.033c.051-.005.1-.009.14-.009s.087,0,.136,0S2.94.01,3.015,0Z" transform="matrix(0.998, -0.07, 0.07, 0.998, 37.688, 1.831)" fill="#e03c8a"/>
        <path id="Path_50868" data-name="Path 50868" d="M2.761,1.046q.074.386.107.753t.055.724A1.413,1.413,0,0,1,2.8,3a1.338,1.338,0,0,1-.266.387,1.229,1.229,0,0,1-.381.259,1.118,1.118,0,0,1-.464.092A1.925,1.925,0,0,1,.9,3.551a1.3,1.3,0,0,1-.477-.418,1.882,1.882,0,0,1-.264-.611Q.071,2.17.009,1.756a1.672,1.672,0,0,1,.05-.618A1.524,1.524,0,0,1,.765.212a1.526,1.526,0,0,1,.6-.2,1.545,1.545,0,0,1,.563.021,1.006,1.006,0,0,1,.405.2A1.046,1.046,0,0,1,2.6.586,2.2,2.2,0,0,1,2.761,1.046ZM1.553.739a.813.813,0,0,0-.591.29A.832.832,0,0,0,.8,1.648c0,.042.009.105.015.191a2.551,2.551,0,0,0,.039.283,2.383,2.383,0,0,0,.085.318,1.012,1.012,0,0,0,.155.293.709.709,0,0,0,.249.2.666.666,0,0,0,.363.052.435.435,0,0,0,.286-.124A.623.623,0,0,0,2.136,2.6a1.186,1.186,0,0,0,.042-.351c0-.13-.009-.265-.023-.4-.009-.1-.025-.212-.045-.342a1.841,1.841,0,0,0-.1-.372A.9.9,0,0,0,1.837.841.323.323,0,0,0,1.553.739Z" transform="matrix(0.998, -0.07, 0.07, 0.998, 41.217, 2.749)" fill="#e03c8a"/>
        <path id="Path_50869" data-name="Path 50869" d="M3.162,1.487q.026.243.05.489c.016.164.035.327.057.489.012.083.022.164.034.245l.034.246c.013.1.023.194.031.291s.015.192.023.286c0,.06-.02.1-.062.1a2.991,2.991,0,0,0-.294.08,1.2,1.2,0,0,1-.282.057c-.036.008-.063-.008-.081-.049s-.028-.1-.043-.147-.032-.1-.05-.146a.236.236,0,0,0-.05-.087c-.02-.021-.045-.02-.076.007a1.73,1.73,0,0,1-.63.379,1.312,1.312,0,0,1-.674.058,1.068,1.068,0,0,1-.579-.33,1.454,1.454,0,0,1-.34-.787Q.151,2.138.1,1.631T.014.61A1.141,1.141,0,0,0,0,.464.65.65,0,0,1,0,.317.054.054,0,0,1,.049.265C.164.255.288.243.419.228S.675.2.79.19C.822.183.843.183.85.189A.145.145,0,0,1,.873.253c.017.209.033.4.049.559s.03.321.045.468.031.3.05.444.042.309.07.483a1.153,1.153,0,0,0,.181.461.618.618,0,0,0,.263.22.434.434,0,0,0,.288.011.6.6,0,0,0,.263-.164.886.886,0,0,0,.185-.306.939.939,0,0,0,.05-.413c0-.13,0-.236-.012-.317s-.015-.185-.025-.31Q2.261.98,2.215.585C2.206.479,2.2.393,2.187.329S2.169.206,2.166.156a.186.186,0,0,1,0-.088A.209.209,0,0,1,2.255.044L2.466.026c.053,0,.1-.007.146-.008l.144,0q.076,0,.2-.013a.049.049,0,0,1,.06.051c0,.042.008.084.014.125s.01.084.014.124q.027.328.064.61C3.133,1.1,3.151,1.292,3.162,1.487Z" transform="matrix(0.998, -0.07, 0.07, 0.998, 44.397, 2.168)" fill="#e03c8a"/>
        <path id="Path_50870" data-name="Path 50870" d="M1.032,3.584A2.419,2.419,0,0,1,1.061,3.1a3.047,3.047,0,0,1,.115-.454c.022-.081.046-.152.07-.215a1.619,1.619,0,0,1,.08-.176c.029-.055.06-.111.091-.167s.066-.12.1-.192.068-.147.107-.241.069-.173.093-.24a.334.334,0,0,0,.01-.217A.5.5,0,0,0,1.622,1,.6.6,0,0,0,1.436.862.49.49,0,0,0,1.212.807,1.179,1.179,0,0,0,.988.852.832.832,0,0,0,.822.926a.8.8,0,0,0-.14.1l-.139.127a.083.083,0,0,1-.1.013C.4,1.14.358,1.115.33,1.093S.272,1.048.244,1.025.187.974.156.943L.033.825A.053.053,0,0,1,.02.735a1.384,1.384,0,0,1,.3-.291C.418.372.528.293.643.206A.523.523,0,0,1,.833.118,1.264,1.264,0,0,1,1.176.009a.871.871,0,0,1,.272,0A1.107,1.107,0,0,1,1.7.094c.086.039.184.078.294.118l.238.18A.454.454,0,0,1,2.408.6c.017.051.033.1.049.162a1.553,1.553,0,0,1,.035.169c.006.028.013.055.019.082a.472.472,0,0,1,.012.084.755.755,0,0,1,0,.265,2.1,2.1,0,0,1-.064.256,4.14,4.14,0,0,1-.162.429c-.061.139-.127.278-.2.418a2.039,2.039,0,0,0-.084.215c-.023.071-.046.145-.07.221a2.587,2.587,0,0,0-.11.678c0,.033-.005.066-.008.1s0,.065-.008.1-.025.055-.067.054-.057,0-.087,0-.059,0-.087,0l-.084,0c-.019,0-.035,0-.049,0l-.05,0c-.018,0-.046,0-.083,0l-.231-.005a.031.031,0,0,1-.037-.033Zm.357.774a.618.618,0,0,1,.3.051.79.79,0,0,1,.063.049.169.169,0,0,1,.043.063c.027.064.054.122.081.177a.3.3,0,0,1,.025.18.413.413,0,0,1-.174.284.921.921,0,0,1-.319.1.225.225,0,0,1-.158-.068.527.527,0,0,1-.174-.218A.424.424,0,0,1,1.046,4.7.664.664,0,0,1,1.16,4.46.257.257,0,0,1,1.388,4.358Z" transform="matrix(0.998, -0.07, 0.07, 0.998, 47.757, 0.177)" fill="#e03c8a"/>
      </g>
      <g id="Group_37459" data-name="Group 37459" transform="translate(107.166 14.687) rotate(-16)">
        <path id="Path_50871" data-name="Path 50871" d="M2.564,3.343,2.575,3.3a.126.126,0,0,0,0-.039s-.011-.007-.029-.01S2.473,3.23,2.4,3.215l-.232-.047-.233-.047A1.164,1.164,0,0,0,1.791,3.1l-.18-.028c-.069-.011-.129-.021-.18-.027a.128.128,0,0,0-.05,0c-.006,0-.013.021-.02.052l-.033.142-.044.187c-.015.066-.031.127-.047.186s-.029.105-.037.142l-.052.224a1.774,1.774,0,0,1-.066.221,2.546,2.546,0,0,0-.077.283c-.02.095-.041.19-.063.286-.016.049-.029.094-.039.138S.883,5,.871,5.045a.3.3,0,0,1-.023.066.025.025,0,0,1-.033.021.166.166,0,0,1-.056-.005L.623,5.094C.591,5.087.562,5.081.534,5.077L.44,5.063C.406,5.057.36,5.047.3,5.034.26,5.024.22,5.016.181,5.009S.1,4.995.068,4.987,0,4.975,0,4.967A.178.178,0,0,1,.01,4.9a1.911,1.911,0,0,1,.053-.227C.084,4.6.1,4.525.122,4.448s.034-.134.054-.2a1.5,1.5,0,0,0,.045-.193q.043-.219.1-.426c.035-.137.066-.276.094-.418s.065-.308.1-.46.069-.3.1-.46c.032-.136.062-.27.091-.4s.057-.269.084-.406c.011-.045.02-.088.03-.129a1.257,1.257,0,0,0,.023-.131c.02-.081.037-.164.054-.245S.928.813.947.731.976.576.994.5s.034-.154.047-.233A.937.937,0,0,1,1.06.156c.008-.036.017-.072.025-.109S1.1.006,1.1,0s.02,0,.042,0c.149.035.262.063.338.082s.135.035.176.045.075.019.1.027.067.019.121.032L1.922.2a.024.024,0,0,1,.021.033.08.08,0,0,0,0,.025.109.109,0,0,1,0,.025c-.019.1-.039.2-.058.294s-.037.194-.051.3q-.037.221-.086.43c-.033.141-.061.282-.085.425-.008.051-.021.123-.041.22s-.035.168-.047.218c-.005.022-.005.037,0,.043a.089.089,0,0,0,.043.017l.152.036c.075.018.154.035.239.052l.238.052L2.4,2.4l.165.041c.074.02.129.035.166.043a.045.045,0,0,0,.057-.029A9.112,9.112,0,0,0,3,1.5,6.078,6.078,0,0,1,3.222.583.141.141,0,0,1,3.248.535c.006-.006.02-.006.043,0l.19.044.156.037.156.037L3.983.7c.032.007.044.025.038.051L4.011.8c-.068.37-.14.743-.218,1.116a4.519,4.519,0,0,0-.12.545,4.211,4.211,0,0,1-.117.531c-.038.144-.074.28-.109.408a3.938,3.938,0,0,0-.085.392l-.074.319c-.049.251-.1.494-.159.728s-.113.471-.168.705l-.016.068a.037.037,0,0,1-.05.031l-.115-.027-.17-.04-.125-.029c-.039-.009-.08-.02-.125-.033s-.1-.027-.169-.043a.217.217,0,0,1-.081-.037.194.194,0,0,1,.01-.087q.048-.239.106-.5c.038-.174.077-.348.114-.52s.077-.343.115-.51S2.53,3.487,2.564,3.343Z" transform="matrix(0.998, -0.07, 0.07, 0.998, 0, 0.281)" fill="#e03c8a"/>
        <path id="Path_50872" data-name="Path 50872" d="M2.962,1.489q-.062.387-.157.744t-.195.7a1.448,1.448,0,0,1-.283.407,1.352,1.352,0,0,1-.382.274,1.225,1.225,0,0,1-.446.114,1.113,1.113,0,0,1-.467-.072,1.933,1.933,0,0,1-.675-.444,1.3,1.3,0,0,1-.3-.556,1.88,1.88,0,0,1-.04-.665c.025-.241.065-.5.12-.772A1.673,1.673,0,0,1,.391.653,1.522,1.522,0,0,1,1.37.024,1.512,1.512,0,0,1,2,.043,1.545,1.545,0,0,1,2.52.255a1.011,1.011,0,0,1,.312.328A1.046,1.046,0,0,1,2.967,1,2.217,2.217,0,0,1,2.962,1.489Zm-1.03-.7A.809.809,0,0,0,1.277.86a.828.828,0,0,0-.36.527Q.9,1.448.866,1.572a2.477,2.477,0,0,0-.06.28,2.272,2.272,0,0,0-.029.327.99.99,0,0,0,.046.329.694.694,0,0,0,.163.275.66.66,0,0,0,.323.172.435.435,0,0,0,.311-.018.616.616,0,0,0,.222-.2A1.212,1.212,0,0,0,2,2.425c.044-.123.082-.252.116-.387.024-.1.049-.207.075-.337a1.886,1.886,0,0,0,.036-.383A.9.9,0,0,0,2.163.981.32.32,0,0,0,1.932.789Z" transform="matrix(0.998, -0.07, 0.07, 0.998, 4.029, 2.5)" fill="#e03c8a"/>
        <path id="Path_50873" data-name="Path 50873" d="M2.745,3.447c.109-.2.211-.41.307-.624s.19-.428.282-.638.184-.411.275-.6a4.755,4.755,0,0,1,.278-.505c.026-.041.05-.058.072-.052l.112.027c.057.014.117.029.182.047s.125.033.179.046l.115.029c.032.009.049.015.052.022a.155.155,0,0,1-.01.062c-.037.1-.069.188-.094.26a2.589,2.589,0,0,1-.107.256q-.135.3-.262.63a3.448,3.448,0,0,1-.138.327q-.076.156-.151.323c-.112.249-.221.486-.325.713s-.21.465-.318.714c-.012.026-.023.053-.033.082s-.022.058-.035.088a.081.081,0,0,1-.116.054l-.373-.1c-.123-.034-.251-.068-.381-.1a.1.1,0,0,1-.08-.1c-.027-.113-.053-.236-.079-.369s-.05-.269-.072-.407-.041-.277-.058-.418-.029-.272-.037-.4q-.241.346-.468.619t-.473.56c-.025.037-.045.058-.061.063a.138.138,0,0,1-.082-.015A3.613,3.613,0,0,0,.46,3.909C.353,3.881.223,3.842.074,3.79a.141.141,0,0,1-.064-.028A.144.144,0,0,1,0,3.69q.018-.3.057-.6t.059-.6c.006-.124.016-.247.031-.371s.027-.247.037-.369a2.4,2.4,0,0,1,.032-.3q.023-.135.038-.3C.265,1.068.275.983.286.9S.309.737.322.655.349.482.364.387.393.182.408.056C.413.023.422.005.434,0a.117.117,0,0,1,.06.005c.111.036.219.069.327.1s.216.063.328.094c.022.007.034.016.036.028s0,.026,0,.04C1.179.338,1.173.4,1.168.458s-.01.122-.019.187C1.134.8,1.118.977,1.1,1.16s-.031.371-.044.564-.024.384-.034.576-.015.376-.015.55c.078-.123.162-.25.253-.379l.268-.377c.087-.123.172-.243.256-.36s.157-.224.223-.321a.176.176,0,0,1,.027-.047c.007-.005.026,0,.057,0l.131.037a.477.477,0,0,0,.065.014l.065.011c.025,0,.069.015.132.033a.073.073,0,0,1,.052.073c.007.147.02.291.035.433s.035.288.055.438.042.311.062.48S2.729,3.244,2.745,3.447Z" transform="matrix(0.998, -0.07, 0.07, 0.998, 7.447, 2.677)" fill="#e03c8a"/>
        <path id="Path_50874" data-name="Path 50874" d="M1.033,3.187q-.027.086-.067.2c-.027.077-.052.157-.076.24s-.043.162-.057.238a.591.591,0,0,0-.007.206c0,.01,0,.034.01.073a.182.182,0,0,0,.042.1.112.112,0,0,0,.108.029.523.523,0,0,0,.21-.12.819.819,0,0,0,.142-.138c.044-.055.088-.106.133-.155.016-.02.027-.027.032-.023l.038.03.167.156c.039.037.094.091.164.161a.26.26,0,0,1,.027.041c.008.015,0,.032-.012.051a2.109,2.109,0,0,1-.28.3,3.638,3.638,0,0,1-.314.241,1.34,1.34,0,0,1-.37.175.633.633,0,0,1-.382,0A.576.576,0,0,1,.2,4.736a1,1,0,0,1-.125-.412,1.9,1.9,0,0,1,.027-.5q.047-.266.117-.519c.045-.169.094-.323.147-.465S.453,2.584.475,2.5A.157.157,0,0,0,.5,2.405c0-.016-.031-.032-.08-.047-.07-.027-.132-.049-.187-.067a1.414,1.414,0,0,1-.179-.071C.024,2.209,0,2.2,0,2.184a.151.151,0,0,1,.012-.073c.032-.087.064-.167.094-.24s.057-.148.081-.223a.182.182,0,0,1,.032-.056.122.122,0,0,1,.056.01c.08.025.16.048.242.066s.164.036.247.053A.051.051,0,0,0,.825,1.7l.021-.067L1.074.952Q1.193.6,1.312.27A1.189,1.189,0,0,0,1.357.152c.013-.04.025-.08.038-.119s.027-.04.052-.027q.169.068.292.106L2.014.2a.275.275,0,0,1,.06.033c0,.007,0,.033-.022.08-.049.127-.1.258-.15.4S1.8.977,1.75,1.1s-.1.253-.144.4-.1.278-.146.4c-.007.007-.011.013-.01.018s0,.01-.007.013c-.008.026,0,.043.021.051.065.025.129.048.191.067a1.362,1.362,0,0,1,.182.072.131.131,0,0,1,.043.028.1.1,0,0,1-.008.049L1.72,2.68c-.009.027-.017.043-.026.047a.072.072,0,0,1-.046,0c-.05-.011-.109-.026-.176-.045s-.125-.036-.174-.051A.09.09,0,0,0,1.18,2.7q-.027.109-.076.254C1.07,3.05,1.047,3.128,1.033,3.187Z" transform="matrix(0.998, -0.07, 0.07, 0.998, 14.776, 3.274)" fill="#e03c8a"/>
        <path id="Path_50875" data-name="Path 50875" d="M3.254,3.872a.147.147,0,0,1-.032.063.117.117,0,0,1-.07,0c-.078-.016-.14-.029-.188-.041s-.1-.021-.141-.029l-.145-.027c-.051-.01-.114-.02-.188-.031-.051-.007-.08-.017-.086-.028a.221.221,0,0,1,.014-.106.393.393,0,0,1,.022-.088c.01-.045-.005-.063-.048-.053a.461.461,0,0,0-.126.024,2.25,2.25,0,0,1-.8.026,2.524,2.524,0,0,1-.757-.24,1.826,1.826,0,0,1-.4-.268.9.9,0,0,1-.227-.319A1.1,1.1,0,0,1,0,2.348a2.942,2.942,0,0,1,.042-.519c.038-.115.077-.228.114-.34s.079-.225.121-.339A1.864,1.864,0,0,1,.655.535,1.723,1.723,0,0,1,1.2.13,1.4,1.4,0,0,1,1.845,0a1.366,1.366,0,0,1,.669.21c.061.051.128.1.2.156l.215.161c.07.053.137.1.2.155a2,2,0,0,1,.158.142c.016.025.026.036.029.032A.3.3,0,0,0,3.341.812,1.256,1.256,0,0,0,3.4.69c.019-.039.038-.084.059-.13A.259.259,0,0,0,3.489.505.1.1,0,0,1,3.518.46c.02-.013.036-.014.049,0a.135.135,0,0,0,.046.026l.139.047.082.028c.025.008.051.018.081.031s.077.029.138.051c.035.011.069.023.1.037s.066.026.1.038.032.021.032.026a.119.119,0,0,1-.01.04q-.17.532-.313.965c-.1.289-.183.556-.266.8l-.232.691ZM3,1.594c-.073-.073-.14-.139-.2-.2s-.129-.118-.21-.185-.163-.129-.246-.186A.843.843,0,0,0,2.1.917a.867.867,0,0,0-.28-.032.826.826,0,0,0-.284.07.853.853,0,0,0-.266.19,1.711,1.711,0,0,0-.157.216,1.508,1.508,0,0,0-.146.3,1.351,1.351,0,0,0-.076.346.679.679,0,0,0,.049.333.794.794,0,0,0,.273.294,1.071,1.071,0,0,0,.357.142,1.407,1.407,0,0,0,.383.022A1.789,1.789,0,0,0,2.3,2.739a1.235,1.235,0,0,0,.264-.106.259.259,0,0,0,.122-.114Z" transform="matrix(0.998, -0.07, 0.07, 0.998, 17.009, 5.478)" fill="#e03c8a"/>
        <path id="Path_50876" data-name="Path 50876" d="M.832,2.359q.118-.337.244-.672c.084-.224.164-.448.238-.674q.1-.3.181-.524c.051-.152.1-.3.151-.438C1.657.021,1.665,0,1.671,0a.129.129,0,0,1,.057,0C1.839.04,1.93.07,2,.1s.163.055.278.091a.044.044,0,0,1,.031.062Q2.24.483,2.166.7c-.049.148-.1.3-.142.456q-.135.382-.227.663t-.175.53q-.084.247-.165.489t-.188.543q-.1.283-.2.563c-.063.187-.128.375-.194.563-.026.074-.056.149-.087.224s-.065.149-.1.22a.068.068,0,0,1-.1.038c-.051-.022-.1-.04-.132-.054L.349,4.9C.314,4.889.276,4.877.239,4.866A.965.965,0,0,1,.1,4.815C.044,4.794.01,4.776,0,4.761s0-.053.021-.114L.516,3.253Z" transform="matrix(0.998, -0.07, 0.07, 0.998, 20.599, 4.8)" fill="#e03c8a"/>
        <path id="Path_50877" data-name="Path 50877" d="M1.3.857c.043-.132.087-.264.134-.393s.09-.257.132-.386A.2.2,0,0,1,1.608,0a.057.057,0,0,1,.048,0l.609.22c.027.01.041.017.044.023A.162.162,0,0,1,2.3.307c-.028.089-.057.18-.091.271S2.149.76,2.122.85c-.063.2-.124.395-.186.585s-.123.385-.185.585-.126.4-.19.588-.132.387-.2.583c-.1.28-.2.562-.3.848s-.192.568-.283.846L.76,4.93C.745,4.974.732,5,.723,5a.184.184,0,0,1-.081-.011L.5,4.951.39,4.919.283,4.888.138,4.847.066,4.821A.16.16,0,0,1,0,4.776C0,4.764,0,4.74.011,4.7A.863.863,0,0,1,.04,4.6a.8.8,0,0,0,.029-.1q.114-.336.225-.674t.227-.682c.048-.131.093-.263.139-.394s.089-.264.132-.4q.149-.436.274-.791C1.149,1.328,1.228,1.093,1.3.857Z" transform="matrix(0.998, -0.07, 0.07, 0.998, 21.865, 5.112)" fill="#e03c8a"/>
        <path id="Path_50878" data-name="Path 50878" d="M2.909,4.16c-.013.03-.021.046-.027.049a.173.173,0,0,1-.059,0l-.157-.04c-.036-.009-.072-.017-.107-.023a.875.875,0,0,1-.122-.033c-.046-.016-.11-.04-.192-.073a.054.054,0,0,1-.039-.053.938.938,0,0,1,.02-.116.089.089,0,0,0-.032-.1,1.539,1.539,0,0,1-.417-.007,2.59,2.59,0,0,1-.964-.348A2.028,2.028,0,0,1,.39,3.08,1.484,1.484,0,0,1,.1,2.638,1.223,1.223,0,0,1,0,2.094a2.954,2.954,0,0,1,.121-.837A2.285,2.285,0,0,1,.511.541,1.372,1.372,0,0,1,1.14.078,1.482,1.482,0,0,1,1.853.019,2.168,2.168,0,0,1,2.57.273a3.47,3.47,0,0,1,.646.462c.019.027.031.04.038.038A.158.158,0,0,0,3.282.716l.06-.149C3.35.546,3.368.54,3.394.55c.083.028.151.052.2.073l.142.056c.043.017.088.037.135.057s.112.045.2.074c.043.017.065.028.065.033A.376.376,0,0,1,4.113.91c-.03.088-.057.165-.082.233s-.053.146-.087.232q-.056.158-.115.318t-.115.318q-.212.613-.409,1.128T2.909,4.16Zm.073-2.685c0-.013-.033-.046-.115-.1S2.69,1.266,2.58,1.2s-.224-.124-.341-.181S2.031.926,1.966.9a.544.544,0,0,0-.394.02,1.07,1.07,0,0,0-.347.241,1.377,1.377,0,0,0-.25.355.9.9,0,0,0-.1.361.8.8,0,0,0,.139.557,1.111,1.111,0,0,0,.4.333,1.882,1.882,0,0,0,.517.163,4.623,4.623,0,0,0,.473.056s.02-.026.047-.082a2.314,2.314,0,0,0,.091-.219q.049-.134.113-.3l.126-.336c.042-.112.08-.217.115-.318S2.961,1.541,2.983,1.475Z" transform="matrix(0.998, -0.07, 0.07, 0.998, 26.401, 8.079)" fill="#e03c8a"/>
        <path id="Path_50879" data-name="Path 50879" d="M1.039.792,1.3.168A.661.661,0,0,1,1.334.1c.012-.023.024-.048.034-.073A.031.031,0,0,1,1.413,0c.074.04.139.076.195.1s.111.056.167.081L1.94.265q.082.039.179.079c.025.01.032.032.02.061S2.1.49,2.089.531,2.06.616,2.046.661s-.015.064-.011.071.026.013.064.019L2.36.8c.07.012.138.026.2.043s.132.037.205.06l.277.088c.032.019.05.039.051.06a.272.272,0,0,1-.01.078,1.443,1.443,0,0,0-.051.149c-.017.061-.036.122-.054.185s-.038.124-.058.183a.88.88,0,0,1-.061.145c-.007.027-.013.043-.018.045a.1.1,0,0,1-.048-.013c-.088-.042-.192-.084-.31-.126A1.845,1.845,0,0,0,2.136,1.6a.887.887,0,0,0-.307,0,.233.233,0,0,0-.183.143c-.009.021-.022.049-.04.085s-.035.073-.051.114l-.049.116c-.015.037-.028.068-.039.093q-.1.207-.174.389l-.14.353c-.045.115-.092.229-.14.345s-.1.239-.169.367A.335.335,0,0,1,.8,3.676c-.014.014-.035.015-.066,0-.1-.046-.205-.09-.326-.133S.179,3.462.084,3.423c-.08-.014-.1-.061-.069-.143s.072-.169.108-.25.072-.164.108-.25q.25-.6.436-1.071C.792,1.393.916,1.088,1.039.792Z" transform="matrix(0.998, -0.07, 0.07, 0.998, 29.83, 8.963)" fill="#e03c8a"/>
        <path id="Path_50880" data-name="Path 50880" d="M.984,1.616.937,1.6s-.011.01-.023.036a2.48,2.48,0,0,0-.086.319.788.788,0,0,0,0,.316.746.746,0,0,0,.139.3,1.129,1.129,0,0,0,.329.281,1.035,1.035,0,0,0,.285.071.856.856,0,0,0,.241-.013.722.722,0,0,0,.2-.07,1.188,1.188,0,0,0,.154-.1c.041-.038.065-.055.072-.053a.656.656,0,0,1,.066.052c.037.031.064.056.081.073a.651.651,0,0,0,.082.074l.246.221c.022.021.032.034.032.041a.106.106,0,0,1-.028.038,1.581,1.581,0,0,1-.7.414,1.565,1.565,0,0,1-.7.023,1.742,1.742,0,0,1-.62-.251A1.914,1.914,0,0,1,.246,2.96,1.66,1.66,0,0,1,0,2.121a2.331,2.331,0,0,1,.165-.84,4.285,4.285,0,0,1,.367-.6A1.91,1.91,0,0,1,1,.229a1.345,1.345,0,0,1,.587-.22,1.456,1.456,0,0,1,.734.12,1.066,1.066,0,0,1,.46.288A1.528,1.528,0,0,1,3.07.863a1.656,1.656,0,0,1,.126.512,1.44,1.44,0,0,1-.033.477,2.494,2.494,0,0,1-.1.313q-.061.148-.122.288c-.013.03-.032.039-.058.028-.209-.091-.366-.162-.471-.213s-.2-.1-.291-.134C2.05,2.1,1.959,2.054,1.849,2l-.33-.152c-.11-.05-.213-.1-.311-.139ZM1.261,1c0,.009.033.029.11.063s.162.068.255.1.18.069.26.1l.126.051.53.231a.6.6,0,0,0-.048-.527.81.81,0,0,0-.4-.286A.829.829,0,0,0,1.629.714a.639.639,0,0,0-.217.1A.436.436,0,0,0,1.261,1Z" transform="matrix(0.998, -0.07, 0.07, 0.998, 32.546, 10.173)" fill="#e03c8a"/>
        <path id="Path_50881" data-name="Path 50881" d="M.571,6.24Q.486,6.176.428,6.125l-.11-.1C.282,5.992.244,5.959.2,5.924S.111,5.849.046,5.8C.017,5.777,0,5.756,0,5.737s.014-.046.047-.082c.1-.1.206-.2.306-.306s.2-.206.306-.305S.843,4.85.9,4.78s.121-.139.175-.2.112-.132.175-.2.145-.158.247-.264a.366.366,0,0,0,.1-.245c.008-.2.008-.406,0-.627s-.017-.44-.03-.661-.025-.438-.037-.656S1.518,1.5,1.514,1.3q0-.219-.011-.435C1.5.722,1.5.577,1.5.429c0-.056,0-.11.005-.163s0-.108.005-.164A.167.167,0,0,1,1.531.014.146.146,0,0,1,1.607,0q.177.016.384.054a2.19,2.19,0,0,0,.384.038q.062,0,.067.013A.369.369,0,0,1,2.448.18q-.01.405-.016.774t-.006.72q0,.352.013.7t.045.71L3,2.521c.158-.173.312-.34.46-.5s.295-.31.44-.454.3-.289.459-.433A.183.183,0,0,1,4.419,1.1a.063.063,0,0,1,.058.024q.129.1.251.2c.081.067.167.136.258.205.031.021.03.049,0,.084a1.364,1.364,0,0,1-.1.115q-.055.059-.1.106-.187.2-.4.444t-.41.442c-.1.1-.2.2-.288.31s-.186.209-.282.313q-.237.251-.425.458c-.126.138-.251.273-.373.4s-.247.268-.374.408-.268.292-.424.454q-.27.288-.532.576t-.539.573c-.038.038-.064.058-.078.059A.217.217,0,0,1,.571,6.24Z" transform="matrix(0.998, -0.07, 0.07, 0.998, 37.831, 12.231)" fill="#e03c8a"/>
        <path id="Path_50882" data-name="Path 50882" d="M3.094,1.777c-.1.242-.2.473-.315.692s-.228.431-.343.639a1.427,1.427,0,0,1-.365.335,1.344,1.344,0,0,1-.432.183,1.23,1.23,0,0,1-.46.014,1.116,1.116,0,0,1-.441-.172,1.92,1.92,0,0,1-.561-.581A1.3,1.3,0,0,1,0,2.28a1.878,1.878,0,0,1,.106-.657Q.221,1.278.392.895A1.665,1.665,0,0,1,.767.4a1.521,1.521,0,0,1,1.7-.245,1.566,1.566,0,0,1,.464.321,1.02,1.02,0,0,1,.234.388,1.052,1.052,0,0,1,.04.438A2.228,2.228,0,0,1,3.094,1.777ZM2.241.869A.813.813,0,0,0,1.587.8a.83.83,0,0,0-.466.436l-.09.17a2.291,2.291,0,0,0-.12.259,2.3,2.3,0,0,0-.1.313.987.987,0,0,0-.027.33.707.707,0,0,0,.1.3.663.663,0,0,0,.278.239.438.438,0,0,0,.307.05.632.632,0,0,0,.259-.142,1.274,1.274,0,0,0,.224-.274c.069-.111.135-.229.2-.353.044-.087.093-.192.146-.313a1.886,1.886,0,0,0,.119-.366.9.9,0,0,0,.009-.343A.321.321,0,0,0,2.241.869Z" transform="matrix(0.998, -0.07, 0.07, 0.998, 42.245, 13.918)" fill="#e03c8a"/>
        <path id="Path_50883" data-name="Path 50883" d="M3.263,2.71c-.072.147-.146.293-.221.44s-.147.294-.215.442l-.1.225-.1.225q-.062.133-.131.262l-.134.252c-.033.051-.068.069-.108.053a2.963,2.963,0,0,0-.29-.091,1.235,1.235,0,0,1-.269-.1.068.068,0,0,1-.042-.085c.016-.05.03-.1.043-.147s.025-.1.036-.151a.242.242,0,0,0,.006-.1c-.006-.03-.029-.042-.068-.036a1.757,1.757,0,0,1-.736-.019,1.312,1.312,0,0,1-.6-.313,1.067,1.067,0,0,1-.311-.591,1.459,1.459,0,0,1,.138-.847q.22-.49.446-.946t.48-.906A1.009,1.009,0,0,0,1.153.148.621.621,0,0,1,1.231.024.055.055,0,0,1,1.3,0c.1.055.213.11.333.169s.23.114.333.169c.031.011.048.021.051.031A.152.152,0,0,1,2,.438q-.147.278-.26.5l-.214.419c-.068.133-.133.266-.2.4s-.13.283-.2.446a1.144,1.144,0,0,0-.1.485.622.622,0,0,0,.1.328.436.436,0,0,0,.236.164.585.585,0,0,0,.31,0A.88.88,0,0,0,2,3.024.95.95,0,0,0,2.265,2.7c.069-.111.123-.2.161-.274l.146-.274q.2-.357.378-.714c.05-.094.088-.172.115-.231s.052-.112.075-.157.04-.069.05-.072a.222.222,0,0,1,.085.026l.188.1c.047.025.09.049.127.072l.123.073c.044.026.1.059.177.1a.05.05,0,0,1,.024.075c-.02.037-.039.075-.056.112s-.036.076-.055.112c-.1.193-.194.376-.275.549S3.359,2.54,3.263,2.71Z" transform="matrix(0.998, -0.07, 0.07, 0.998, 45.151, 14.803)" fill="#e03c8a"/>
        <path id="Path_50884" data-name="Path 50884" d="M.6,3.9a.626.626,0,0,1,.223.2.734.734,0,0,1,.026.074.162.162,0,0,1,0,.076c-.011.068-.02.133-.027.193a.3.3,0,0,1-.075.165.411.411,0,0,1-.3.145.874.874,0,0,1-.321-.09.221.221,0,0,1-.1-.141.53.53,0,0,1-.029-.279.421.421,0,0,1,.126-.242.65.65,0,0,1,.226-.141A.255.255,0,0,1,.6,3.9Zm.116-.844a2.4,2.4,0,0,1,.285-.392,3.03,3.03,0,0,1,.34-.322c.063-.055.121-.1.175-.142A1.57,1.57,0,0,1,1.683,2.1c.054-.031.11-.061.166-.091s.12-.065.19-.106.138-.088.22-.145.151-.109.208-.152a.339.339,0,0,0,.126-.177A.492.492,0,0,0,2.607,1.2.594.594,0,0,0,2.527.98.5.5,0,0,0,2.368.813,1.181,1.181,0,0,0,2.155.731.843.843,0,0,0,1.975.7.784.784,0,0,0,1.8.715L1.615.747A.084.084,0,0,1,1.527.706C1.5.656,1.483.613,1.469.579s-.025-.068-.034-.1S1.414.4,1.4.36s-.024-.1-.04-.165A.053.053,0,0,1,1.4.111,1.365,1.365,0,0,1,1.808.026c.125-.005.259-.014.4-.024A.518.518,0,0,1,2.42.029a1.24,1.24,0,0,1,.347.093.848.848,0,0,1,.228.15,1.11,1.11,0,0,1,.172.206c.052.08.113.165.185.258l.1.281a.454.454,0,0,1,.029.271c-.013.051-.027.105-.045.162a1.6,1.6,0,0,1-.061.162c-.01.027-.019.053-.028.08a.477.477,0,0,1-.034.077.768.768,0,0,1-.144.223,2.1,2.1,0,0,1-.192.181,4.265,4.265,0,0,1-.367.275q-.189.127-.391.246a2.034,2.034,0,0,0-.186.135c-.058.048-.118.1-.178.149a2.582,2.582,0,0,0-.458.511l-.06.079c-.02.026-.04.052-.059.079s-.05.033-.085.008-.049-.028-.074-.045l-.075-.045L.978,3.514l-.039-.03L.9,3.454a.669.669,0,0,0-.071-.043l-.191-.13a.031.031,0,0,1-.014-.048Z" transform="matrix(0.998, -0.07, 0.07, 0.998, 48.687, 15.231)" fill="#e03c8a"/>
      </g>
      <g id="Group_37460" data-name="Group 37460" transform="translate(171.042 22.008) rotate(-38)">
        <path id="Path_50885" data-name="Path 50885" d="M2.963,3.4,3,3.372a.147.147,0,0,0,.027-.029.073.073,0,0,0-.014-.028l-.08-.122-.132-.2-.132-.2a1.256,1.256,0,0,0-.086-.118c-.032-.041-.067-.09-.108-.147l-.107-.146c-.019-.021-.032-.033-.038-.034s-.023.006-.051.023l-.124.077L2,2.554c-.057.035-.111.069-.164.1s-.1.055-.126.075l-.2.122a2.015,2.015,0,0,1-.2.11,2.172,2.172,0,0,0-.254.146q-.122.08-.247.157c-.046.023-.087.047-.125.07l-.121.076A.3.3,0,0,1,.5,3.44.025.025,0,0,1,.46,3.43a.191.191,0,0,1-.036-.044L.351,3.268C.334,3.241.317,3.216.3,3.194L.245,3.117C.224,3.088.2,3.049.166,3,.144,2.962.121,2.928.1,2.9S.054,2.832.034,2.8,0,2.747,0,2.74A.162.162,0,0,1,.053,2.7a1.821,1.821,0,0,1,.2-.123c.068-.037.134-.076.2-.118s.119-.071.178-.1A1.408,1.408,0,0,0,.8,2.249c.123-.082.246-.16.368-.234s.241-.149.361-.229.264-.173.4-.255.264-.168.4-.255.235-.148.35-.222S2.9.9,3.017.825L3.13.755C3.165.732,3.2.707,3.238.678q.106-.066.211-.136C3.519.5,3.589.451,3.66.406s.13-.089.2-.13.133-.085.2-.132A.7.7,0,0,1,4.146.08L4.241.02A.108.108,0,0,1,4.286,0c.006,0,.015.012.028.032q.122.2.181.3l.093.155c.022.036.039.066.052.091s.034.06.063.108L4.726.72a.025.025,0,0,1-.009.038A.054.054,0,0,0,4.7.774.056.056,0,0,1,4.68.789C4.6.848,4.513.9,4.431.957s-.163.112-.246.173q-.181.13-.365.245c-.122.076-.241.157-.359.24-.041.032-.1.074-.183.127s-.145.094-.187.121c-.02.013-.03.022-.03.031a.092.092,0,0,0,.017.042l.084.133c.04.065.085.134.132.205s.092.141.132.205l.084.133L3.6,2.76c.038.066.068.115.087.146a.044.044,0,0,0,.061.019A9,9,0,0,0,4.568,2.4a6.083,6.083,0,0,1,.81-.493.187.187,0,0,1,.051-.016c.009,0,.019.01.031.031l.1.165.085.135c.027.044.055.09.085.137l.1.166c.018.028.014.049-.009.063l-.041.026q-.465.324-.942.637a4.548,4.548,0,0,0-.47.3,4.17,4.17,0,0,1-.458.294l-.365.211a3.645,3.645,0,0,0-.336.218l-.278.173q-.318.214-.628.4t-.617.38l-.058.037a.037.037,0,0,1-.058-.013l-.062-.1L1.42,5.009,1.353,4.9c-.021-.034-.043-.071-.066-.111S1.235,4.7,1.2,4.639a.217.217,0,0,1-.032-.083c0-.01.025-.028.068-.056q.2-.135.429-.28l.449-.289q.223-.143.442-.28Z" transform="matrix(0.998, -0.07, 0.07, 0.998, 0, 0.408)"/>
        <path id="Path_50886" data-name="Path 50886" d="M3.06,2.431q-.317.23-.636.417T1.793,3.2a1.425,1.425,0,0,1-.487.088,1.362,1.362,0,0,1-.464-.076,1.221,1.221,0,0,1-.4-.235,1.106,1.106,0,0,1-.28-.38A1.924,1.924,0,0,1,0,1.81,1.305,1.305,0,0,1,.178,1.2,1.864,1.864,0,0,1,.619.7Q.9.473,1.249.241A1.676,1.676,0,0,1,1.829.024a1.552,1.552,0,0,1,.595.01A1.521,1.521,0,0,1,3.4.726a1.553,1.553,0,0,1,.22.519,1.02,1.02,0,0,1-.01.453,1.058,1.058,0,0,1-.2.392A2.2,2.2,0,0,1,3.06,2.431ZM2.825,1.208A.818.818,0,0,0,2.311.8a.837.837,0,0,0-.627.12l-.166.1a2.455,2.455,0,0,0-.24.156,2.3,2.3,0,0,0-.251.211.975.975,0,0,0-.2.265.708.708,0,0,0-.079.311.654.654,0,0,0,.108.35.436.436,0,0,0,.232.206.62.62,0,0,0,.3.018,1.231,1.231,0,0,0,.335-.111c.118-.056.236-.121.356-.192.083-.05.181-.112.291-.186a1.783,1.783,0,0,0,.3-.246.876.876,0,0,0,.192-.284A.324.324,0,0,0,2.825,1.208Z" transform="matrix(0.998, -0.07, 0.07, 0.998, 2.772, 4.656)"/>
        <path id="Path_50887" data-name="Path 50887" d="M2.159,4.073q.329-.1.658-.225c.22-.084.436-.169.65-.252s.42-.161.619-.231A4.86,4.86,0,0,1,4.639,3.2c.048-.011.076-.006.088.014s.028.049.06.1.063.1.1.162.065.112.094.159.05.081.062.1a.128.128,0,0,1,.022.052c0,.007-.019.019-.051.037-.1.045-.181.084-.25.118a2.647,2.647,0,0,1-.257.1c-.206.08-.416.166-.63.262a3.356,3.356,0,0,1-.328.134c-.109.038-.221.079-.336.122-.255.1-.5.189-.733.275s-.477.182-.73.283a.774.774,0,0,0-.081.033c-.027.013-.057.025-.087.038a.081.081,0,0,1-.121-.044l-.191-.337c-.063-.111-.129-.224-.2-.339a.1.1,0,0,1,.015-.129c.061-.1.129-.2.2-.316s.154-.225.237-.339.166-.225.253-.336.173-.214.257-.31q-.414.074-.768.108t-.731.061a.165.165,0,0,1-.087,0A.137.137,0,0,1,.4,3.148a3.853,3.853,0,0,0-.184-.36C.159,2.693.1,2.573.025,2.43A.134.134,0,0,1,0,2.365c0-.011.016-.031.043-.056q.225-.2.461-.382t.467-.385c.092-.084.186-.163.284-.241s.193-.155.288-.235A2.733,2.733,0,0,1,1.775.876Q1.888.8,2.013.693l.2-.159c.065-.05.132-.1.2-.15L2.633.226C2.71.168,2.8.1,2.9.022,2.924,0,2.944,0,2.955,0a.117.117,0,0,1,.038.046c.053.1.106.2.159.3s.109.2.166.3c.011.02.013.035,0,.045L3.3.726c-.053.04-.1.08-.146.118S3.06.923,3.008.963c-.124.1-.256.212-.4.33s-.284.241-.429.368-.288.256-.431.384-.276.256-.4.379q.213-.049.446-.089l.457-.079.435-.074q.212-.036.385-.07A.21.21,0,0,1,3.126,2.1c.009,0,.021.015.037.044l.068.118a.443.443,0,0,0,.035.056l.039.054c.014.021.038.06.07.117a.073.073,0,0,1-.015.088q-.147.164-.281.331c-.088.112-.179.228-.27.35s-.19.25-.295.384S2.291,3.919,2.159,4.073Z" transform="matrix(0.998, -0.07, 0.07, 0.998, 4.402, 6.825)"/>
        <path id="Path_50888" data-name="Path 50888" d="M3.064,1.778A.6.6,0,0,0,2.782,1.5a.819.819,0,0,0-.362-.065,1.4,1.4,0,0,0-.386.073,3.2,3.2,0,0,0-.346.134q-.323.18-.636.341T.459,2.3L.41,2.33A.071.071,0,0,1,.3,2.3C.245,2.193.2,2.105.159,2.04S.074,1.883.02,1.769A.112.112,0,0,1,0,1.7c0-.013.026-.031.065-.056Q.8,1.213,1.555.819T3.044.01C3.077-.007,3.1,0,3.112.022l.379.511c.015.019.022.031.021.04S3.5.6,3.47.614C3.4.658,3.347.7,3.3.734s-.111.078-.186.127c-.031.032-.03.055,0,.068a.739.739,0,0,1,.243.06,1.212,1.212,0,0,1,.226.128,1.154,1.154,0,0,1,.188.169.773.773,0,0,1,.128.2A.953.953,0,0,1,4,2.04a2.193,2.193,0,0,1-.159.515.15.15,0,0,0-.012.061c0,.01.019.019.05.029q.16.067.283.124a1.59,1.59,0,0,1,.227.131.934.934,0,0,1,.186.171,1.322,1.322,0,0,1,.155.241.928.928,0,0,1,.125.512.82.82,0,0,1-.265.5,3.042,3.042,0,0,1-.391.337,4.364,4.364,0,0,1-.425.272q-.218.124-.438.237t-.425.233L2.192,5.8a.2.2,0,0,1-.1.032c-.017,0-.041-.03-.07-.078l-.248-.484a.174.174,0,0,1,0-.068c0-.013.022-.029.053-.05l.173-.09.431-.236c.145-.079.287-.16.428-.242a1.772,1.772,0,0,1,.189-.121L3.314,4.3c.1-.057.191-.119.285-.186a1.634,1.634,0,0,0,.24-.2.558.558,0,0,0,.133-.221.26.26,0,0,0-.038-.228.323.323,0,0,0-.274-.153,1.2,1.2,0,0,0-.415.061,3.383,3.383,0,0,0-.494.2c-.176.084-.346.171-.511.257s-.318.166-.462.237a2.024,2.024,0,0,1-.346.142c-.056.023-.1.013-.118-.033-.015-.029-.037-.07-.067-.123s-.06-.109-.091-.169-.06-.117-.087-.171L1,3.584A.085.085,0,0,1,1,3.536c0-.009.017-.021.041-.033.156-.085.32-.171.494-.26s.345-.18.514-.274.327-.19.476-.287a2.281,2.281,0,0,0,.37-.3.824.824,0,0,0,.2-.3A.382.382,0,0,0,3.064,1.778Z" transform="matrix(0.998, -0.07, 0.07, 0.998, 8.243, 13.402)"/>
        <path id="Path_50889" data-name="Path 50889" d="M2.886,3.371c-.145.075-.291.148-.438.223s-.293.15-.435.229L1.8,3.942l-.217.12c-.086.047-.173.091-.26.134l-.258.123C1,4.342.964,4.335.942,4.3a2.964,2.964,0,0,0-.181-.247,1.242,1.242,0,0,1-.155-.242.067.067,0,0,1,.017-.093c.042-.03.082-.062.121-.093s.078-.065.119-.1a.247.247,0,0,0,.063-.078c.013-.027,0-.049-.034-.069a1.734,1.734,0,0,1-.581-.452,1.319,1.319,0,0,1-.3-.607,1.063,1.063,0,0,1,.1-.66,1.445,1.445,0,0,1,.612-.6Q1.2.8,1.65.562T2.573.117a1.083,1.083,0,0,0,.134-.06A.6.6,0,0,1,2.843,0a.055.055,0,0,1,.065.023q.075.156.168.333t.169.333c.017.027.025.045.022.055s-.021.024-.052.045c-.188.091-.356.172-.5.246l-.42.211c-.133.067-.265.135-.4.206s-.274.15-.427.239a1.158,1.158,0,0,0-.365.334.616.616,0,0,0-.111.324.434.434,0,0,0,.092.272.594.594,0,0,0,.248.187.894.894,0,0,0,.352.063.958.958,0,0,0,.4-.1c.121-.049.218-.09.292-.126l.28-.134q.376-.166.728-.351c.1-.046.172-.086.229-.119s.108-.06.154-.082a.178.178,0,0,1,.083-.028c.009,0,.027.026.053.07L4,2.2c.023.048.043.092.06.134l.056.132c.02.046.048.108.084.184a.05.05,0,0,1-.026.075c-.038.017-.075.037-.112.057s-.074.04-.111.057c-.2.1-.379.188-.547.279S3.064,3.291,2.886,3.371Z" transform="matrix(0.998, -0.07, 0.07, 0.998, 11.228, 17.877)"/>
        <path id="Path_50890" data-name="Path 50890" d="M3.716,1.6c.013.03,0,.05-.033.062L3.5,1.722c-.046.016-.089.031-.129.044l-.123.041c-.042.014-.1.034-.161.059-.032.009-.051.012-.058.008a.169.169,0,0,1-.034-.042,3.838,3.838,0,0,1-.187-.4,1.264,1.264,0,0,0-.213-.355A.722.722,0,0,0,2.237.859a1.322,1.322,0,0,0-.612.013,1.085,1.085,0,0,0-.384.157.9.9,0,0,0-.27.272.939.939,0,0,0-.132.364.993.993,0,0,0,.031.419.513.513,0,0,0,.082.2,2.551,2.551,0,0,0,.161.226c.061.078.122.148.184.216l.154.17c.02.022.021.039,0,.053-.054.061-.1.108-.123.141l-.078.09-.076.085c-.027.03-.067.072-.118.127s-.107.09-.14.063a1.357,1.357,0,0,1-.243-.214A3.3,3.3,0,0,1,.44,2.961a2.958,2.958,0,0,1-.2-.308,1.781,1.781,0,0,1-.132-.288A1.8,1.8,0,0,1,.048,1.345,1.8,1.8,0,0,1,.555.512,1.531,1.531,0,0,1,1.18.117,2.229,2.229,0,0,1,1.87,0a1.928,1.928,0,0,1,.694.142A1.815,1.815,0,0,1,3.1.481a1.843,1.843,0,0,1,.378.5A3.168,3.168,0,0,1,3.716,1.6Z" transform="matrix(0.998, -0.07, 0.07, 0.998, 13.177, 21.438)"/>
        <path id="Path_50891" data-name="Path 50891" d="M4.836.613c.009.021.012.034.009.038a.238.238,0,0,1-.034.026l-.2.09L4.294.9l-.327.159q-.163.079-.329.152c-.128.067-.254.133-.377.2l-.371.2c-.04.023-.081.044-.12.064a1.186,1.186,0,0,0-.124.074,1.464,1.464,0,0,1,.186.094,1.614,1.614,0,0,1,.22.155,1.492,1.492,0,0,1,.2.2.533.533,0,0,1,.115.219.672.672,0,0,1,.039.471,1.338,1.338,0,0,1-.212.42,1.458,1.458,0,0,1-.456.417c-.175.1-.356.195-.544.288q-.18.093-.365.182c-.124.059-.249.117-.377.173a1.272,1.272,0,0,1-.139.064l-.143.059a.152.152,0,0,1-.047.013.043.043,0,0,1-.065-.025l-.047-.108c-.018-.043-.034-.076-.047-.1L.926,4.2C.914,4.184.9,4.161.891,4.135s-.026-.059-.044-.1L.813,3.956a.074.074,0,0,1,.044-.073l.058-.025a.338.338,0,0,1,.06-.019c.073-.031.182-.081.331-.148s.3-.14.456-.219.3-.155.428-.229a.953.953,0,0,0,.248-.181.785.785,0,0,0,.208-.517.4.4,0,0,0-.2-.313.758.758,0,0,0-.44-.085,1.148,1.148,0,0,0-.514.164.6.6,0,0,0-.132.046l-.133.063-.251.121Q.851,2.6.724,2.656c-.051.023-.1.046-.155.072A1.406,1.406,0,0,1,.4,2.8a.133.133,0,0,1-.072.009C.32,2.8.307,2.784.294,2.753L.217,2.6C.2,2.562.179,2.523.163,2.488S.128,2.413.108,2.371l-.077-.15a.257.257,0,0,1-.013-.039A.321.321,0,0,0,0,2.142c-.01-.021,0-.038.025-.049S.08,2.07.107,2.055s.055-.027.085-.041l.96-.466q.772-.377,1.56-.729Q2.987.7,3.257.577T3.8.329c.123-.055.24-.109.351-.165s.221-.106.334-.15A.249.249,0,0,1,4.549,0c.008,0,.019.017.032.047l.074.169c.02.045.039.086.058.123s.038.078.056.12Z" transform="matrix(0.998, -0.07, 0.07, 0.998, 14.141, 23.253)"/>
        <path id="Path_50892" data-name="Path 50892" d="M3.849,1.4q.3-.127.6-.244c.2-.078.405-.154.61-.23.026-.01.041-.014.048-.011s.013.014.022.036l.1.289c.031.091.06.182.086.272a.056.056,0,0,0,.006.035c.009.021,0,.041-.03.057-.07.038-.14.073-.209.106l-.212.1q-1.046.521-2.084.948L.682,3.625a.046.046,0,0,1-.057-.031,1.907,1.907,0,0,1-.135-.313c-.033-.1-.071-.207-.116-.32a.07.07,0,0,1,.036-.1L.538,2.8c.027-.014.069-.037.126-.069a1.51,1.51,0,0,1-.493-.551A1.549,1.549,0,0,1,0,1.533,1.466,1.466,0,0,1,.119.893,1.448,1.448,0,0,1,.492.37,1.385,1.385,0,0,1,1.176.053C1.3.035,1.419.02,1.537.008A1.471,1.471,0,0,1,1.9.015,1.144,1.144,0,0,1,2.46.169a1.168,1.168,0,0,1,.4.384,1.315,1.315,0,0,1,.191.538A1.523,1.523,0,0,1,3,1.715c0,.027,0,.033.03.019.106-.048.191-.084.253-.109l.172-.068.162-.064Zm-1.511.578c0-.1,0-.2.006-.306a2.31,2.31,0,0,0-.008-.3,1.178,1.178,0,0,0-.058-.277A.554.554,0,0,0,2.136.865.465.465,0,0,0,1.906.738a1.031,1.031,0,0,0-.3-.025A1.336,1.336,0,0,0,1.3.774.857.857,0,0,0,1.041.9a.518.518,0,0,0-.2.264.722.722,0,0,0-.022.312A1.234,1.234,0,0,0,.91,1.8a2.84,2.84,0,0,0,.152.3,2.631,2.631,0,0,0,.153.235c.049.066.08.111.095.135.191-.086.362-.165.512-.241Z" transform="matrix(0.998, -0.07, 0.07, 0.998, 17.373, 29.826)"/>
        <path id="Path_50893" data-name="Path 50893" d="M.47.715c.078-.07.146-.126.2-.17A1.909,1.909,0,0,1,.843.429C.9.4.956.363,1.019.333s.141-.067.235-.107c.143-.044.3-.088.468-.132A3.066,3.066,0,0,1,2.233.006a1.633,1.633,0,0,1,.492.031.8.8,0,0,1,.406.227,1.953,1.953,0,0,1,.423.627,1.232,1.232,0,0,1,.081.71c-.045.146-.087.267-.127.365a.986.986,0,0,1-.153.255,1.166,1.166,0,0,1-.238.209q-.146.1-.378.232a4.719,4.719,0,0,1-.612.3,2.273,2.273,0,0,1-.68.174,1.433,1.433,0,0,1-.655-.088,1.161,1.161,0,0,1-.548-.486,1.784,1.784,0,0,1-.238-1A1.3,1.3,0,0,1,.47.715Zm2.479.49a.788.788,0,0,0-.081-.156A.587.587,0,0,0,2.734.909a.626.626,0,0,0-.2-.1A.849.849,0,0,0,2.262.785a2.669,2.669,0,0,0-.35.042,1.4,1.4,0,0,0-.316.1,2.021,2.021,0,0,0-.313.177,2.937,2.937,0,0,0-.334.271A.549.549,0,0,0,.8,1.645.765.765,0,0,0,.777,2a.534.534,0,0,0,.15.29.43.43,0,0,0,.363.094A2.1,2.1,0,0,0,1.7,2.292q.223-.07.421-.147c.132-.052.245-.1.339-.147s.156-.073.181-.083a.584.584,0,0,0,.274-.281A.554.554,0,0,0,2.949,1.2Z" transform="matrix(0.998, -0.07, 0.07, 0.998, 18.739, 32.796)"/>
        <path id="Path_50894" data-name="Path 50894" d="M3.42,2.544q.387.016.685.013c.2,0,.379-.006.544-.01l.482-.012c.156,0,.324,0,.505.014a.706.706,0,0,0,.077,0,.11.11,0,0,1,.068.017.078.078,0,0,1,.04.064.268.268,0,0,0,.014.073c.025.105.052.2.08.293s.057.188.087.29c.01.046.012.072,0,.08a.148.148,0,0,1-.078.01c-.22,0-.442,0-.666,0s-.448,0-.672,0L2.315,3.372q-.339,0-.678,0c-.227,0-.453,0-.681,0-.114,0-.223,0-.331-.01s-.217-.009-.331-.01a.242.242,0,0,0-.068-.016.153.153,0,0,1-.049-.014A.069.069,0,0,1,.144,3.29a.272.272,0,0,1-.02-.07C.112,3.17.1,3.126.094,3.087s-.015-.076-.02-.112S.065,2.9.06,2.866a.651.651,0,0,0-.033-.129C0,2.663-.005,2.617,0,2.6s.056-.025.138-.028q.185-.019.365-.028c.121-.006.244-.013.369-.021.227-.013.441-.023.644-.033s.4-.01.6,0a.152.152,0,0,0,.113-.013.676.676,0,0,0,.1-.065,7.371,7.371,0,0,0,.6-.581c.187-.2.382-.4.586-.6.124-.126.238-.239.342-.34s.2-.2.3-.3S4.345.41,4.441.321s.2-.18.3-.274C4.779.014,4.8,0,4.814,0s.031.025.06.068c.056.094.118.187.186.28s.132.185.193.277c.019.028.027.045.025.054a.233.233,0,0,1-.04.055q-.457.411-.927.841A7.98,7.98,0,0,0,3.42,2.544Z" transform="matrix(0.998, -0.07, 0.07, 0.998, 19.22, 38.067)"/>
        <path id="Path_50895" data-name="Path 50895" d="M.525.614C.606.549.678.5.737.455S.856.379.912.349,1.029.29,1.093.262,1.238.2,1.334.167c.145-.036.3-.071.475-.106A3.068,3.068,0,0,1,2.323,0a1.589,1.589,0,0,1,.49.058.8.8,0,0,1,.394.248,1.949,1.949,0,0,1,.388.649,1.232,1.232,0,0,1,.043.714c-.052.144-.1.262-.146.357a.987.987,0,0,1-.167.246,1.193,1.193,0,0,1-.249.2c-.1.061-.23.132-.39.211a5.029,5.029,0,0,1-.627.272,2.287,2.287,0,0,1-.688.137A1.442,1.442,0,0,1,.72,2.965,1.17,1.17,0,0,1,.2,2.45,1.781,1.781,0,0,1,.014,1.44,1.3,1.3,0,0,1,.525.614Zm2.448.622A.8.8,0,0,0,2.9,1.076.572.572,0,0,0,2.774.93.6.6,0,0,0,2.58.823.832.832,0,0,0,2.31.781,2.687,2.687,0,0,0,1.959.8a1.4,1.4,0,0,0-.321.083,1.989,1.989,0,0,0-.322.161A2.919,2.919,0,0,0,.968,1.3.563.563,0,0,0,.8,1.561a.76.76,0,0,0-.04.348.532.532,0,0,0,.135.3.43.43,0,0,0,.357.113,2.119,2.119,0,0,0,.414-.066c.151-.038.294-.079.429-.124s.25-.088.347-.128.159-.064.186-.073a.593.593,0,0,0,.288-.267A.552.552,0,0,0,2.973,1.235Z" transform="matrix(0.998, -0.07, 0.07, 0.998, 22.547, 41.772)"/>
        <path id="Path_50896" data-name="Path 50896" d="M.117,3.057a.176.176,0,0,1,0-.116A.184.184,0,0,1,.222,2.9l.1-.018c.025,0,.047-.01.068-.016l.064-.019L.54,2.816C.423,2.7.326,2.6.247,2.5a1.148,1.148,0,0,1-.181-.292A.894.894,0,0,1,0,1.878a1.849,1.849,0,0,1,.054-.43A.939.939,0,0,1,.142,1.24a1.133,1.133,0,0,1,.131-.184A1.656,1.656,0,0,1,.549.81,1.417,1.417,0,0,1,.837.656a2.56,2.56,0,0,1,.312-.1L1.5.466l.745-.21q.369-.106.738-.208L3.138,0a.2.2,0,0,1,.054,0c.008,0,.015.014.022.037.029.132.053.245.071.339s.045.2.079.314a.162.162,0,0,1,0,.076C3.359.782,3.336.795,3.3.806L2.8.938l-.472.125q-.236.062-.479.138c-.162.05-.332.109-.511.177a.6.6,0,0,0-.267.155.608.608,0,0,0-.14.238.579.579,0,0,0-.019.268.542.542,0,0,0,.1.242.533.533,0,0,0,.214.169.617.617,0,0,0,.332.04q.234-.047.514-.116t.548-.137l.493-.128c.151-.04.271-.071.362-.093l.114-.033c.044-.014.068,0,.069.037.033.126.063.243.093.351s.054.2.075.29a.05.05,0,0,1-.038.069l-.13.038-.191.057c-.067.02-.128.039-.186.058s-.1.033-.126.041l-.542.161q-.214.063-.4.121c-.122.039-.247.075-.375.111s-.284.075-.469.121l-.167.049c-.063.019-.128.037-.195.055l-.2.049-.168.034c-.042.008-.084.016-.127.027a.8.8,0,0,1-.129.02.185.185,0,0,1-.1-.006.176.176,0,0,1-.045-.09,1.276,1.276,0,0,1-.077-.26Q.148,3.187.117,3.057Z" transform="matrix(0.998, -0.07, 0.07, 0.998, 23.666, 44.463)"/>
        <path id="Path_50897" data-name="Path 50897" d="M1.638,3.725c.229,0,.46-.02.694-.044s.465-.048.694-.073.448-.045.658-.061a4.722,4.722,0,0,1,.577-.01c.048,0,.075.014.081.037s.015.055.032.111.033.115.05.181.033.124.049.177.027.091.032.114a.113.113,0,0,1,.008.056.153.153,0,0,1-.06.023c-.105.017-.2.033-.271.048a2.7,2.7,0,0,1-.276.034c-.219.022-.445.051-.675.087a3.363,3.363,0,0,1-.353.043q-.173.011-.355.03l-.78.073q-.372.035-.778.081a.848.848,0,0,0-.087.011q-.045.008-.093.013a.08.08,0,0,1-.105-.074c-.033-.126-.064-.251-.1-.375s-.067-.25-.1-.379a.1.1,0,0,1,.049-.121C.61,3.628.7,3.544.806,3.456s.208-.176.317-.264.221-.174.333-.259.223-.161.329-.231q-.419-.036-.77-.1T.295,2.471A.148.148,0,0,1,.211,2.45a.143.143,0,0,1-.028-.079,3.8,3.8,0,0,0-.083-.4C.069,1.867.04,1.736.009,1.581A.144.144,0,0,1,0,1.51c0-.011.023-.025.057-.043Q.327,1.334.6,1.219T1.156.97q.165-.085.337-.158c.115-.049.228-.1.339-.152s.19-.088.275-.121S2.285.47,2.384.425l.236-.1C2.7.293,2.774.264,2.852.234L3.1.137C3.194.1,3.3.06,3.414.011c.031-.013.05-.014.06,0A.124.124,0,0,1,3.5.061c.025.114.049.225.075.334s.052.219.081.331c.006.022,0,.038-.007.044a.287.287,0,0,1-.034.023C3.554.819,3.5.845,3.444.871s-.111.05-.171.075L2.8,1.16c-.167.077-.337.157-.51.243s-.345.17-.517.258-.333.174-.484.26q.218.008.454.031L2.206,2l.439.043q.214.021.39.033a.171.171,0,0,1,.053,0c.008,0,.016.02.024.051.016.063.027.106.034.132a.477.477,0,0,0,.02.064l.023.062c.008.023.021.068.037.131a.073.073,0,0,1-.037.081c-.124.08-.243.162-.358.246s-.233.174-.353.267-.248.191-.385.293S1.805,3.61,1.638,3.725Z" transform="matrix(0.998, -0.07, 0.07, 0.998, 25.638, 50.223)"/>
        <path id="Path_50898" data-name="Path 50898" d="M1.579.92A.4.4,0,0,1,1.562.874s-.015,0-.043,0A2.45,2.45,0,0,0,1.211,1a.792.792,0,0,0-.254.187.758.758,0,0,0-.158.29,1.15,1.15,0,0,0-.029.432,1.027,1.027,0,0,0,.113.271.841.841,0,0,0,.154.186.707.707,0,0,0,.174.117,1.1,1.1,0,0,0,.172.063c.056.011.084.021.086.027a.68.68,0,0,1,0,.083c0,.048-.007.085-.01.109a.548.548,0,0,0-.01.11L1.415,3.2c0,.029-.007.046-.013.05a.089.089,0,0,1-.047,0,1.587,1.587,0,0,1-.749-.312A1.564,1.564,0,0,1,.173,2.4,1.754,1.754,0,0,1,0,1.75a1.879,1.879,0,0,1,.056-.621,1.655,1.655,0,0,1,.525-.7A2.33,2.33,0,0,1,1.359.062,4.209,4.209,0,0,1,2.057,0,1.9,1.9,0,0,1,2.7.1a1.341,1.341,0,0,1,.526.339,1.472,1.472,0,0,1,.343.661,1.075,1.075,0,0,1,.043.541,1.536,1.536,0,0,1-.185.5,1.652,1.652,0,0,1-.335.407,1.469,1.469,0,0,1-.4.258,2.223,2.223,0,0,1-.312.1c-.1.027-.2.052-.3.074-.032.008-.051,0-.057-.03q-.078-.332-.11-.5c-.022-.114-.044-.219-.065-.314q-.02-.116-.057-.295l-.075-.354c-.025-.118-.05-.229-.074-.333ZM2.24.774c-.009,0,0,.044.015.126s.041.17.069.265.051.187.073.27.033.128.034.132l.131.564a.6.6,0,0,0,.394-.353.805.805,0,0,0-.01-.495A.842.842,0,0,0,2.688.9.635.635,0,0,0,2.482.782.431.431,0,0,0,2.24.774Z" transform="matrix(0.998, -0.07, 0.07, 0.998, 27.263, 55.145)"/>
        <path id="Path_50899" data-name="Path 50899" d="M1.476.837c.23-.055.458-.111.68-.17S2.6.548,2.833.484c.076-.021.155-.042.236-.062s.16-.041.236-.062L3.36.348a.156.156,0,0,1,.064,0s.012.019.017.046a3.745,3.745,0,0,0,.133.378,2.232,2.232,0,0,1,.117.375c.011.031.014.049.008.055a.2.2,0,0,1-.063.021c-.112.029-.225.057-.339.084s-.225.058-.337.091l-.4.1c-.133.033-.264.07-.394.107q-.553.149-1.129.289c-.127.028-.254.056-.381.086s-.256.06-.388.088a.039.039,0,0,1-.027.009.124.124,0,0,0-.028,0c-.032.008-.05,0-.055-.023a1.076,1.076,0,0,1-.1-.4,2.767,2.767,0,0,0-.054-.395A.132.132,0,0,1,0,1.19c.007-.013.033-.025.078-.035C.313,1.1.545,1.047.779,1S1.245.892,1.476.837ZM4.913.894a.618.618,0,0,1-.3-.006L4.542.843A.117.117,0,0,1,4.5.785C4.46.727,4.425.672,4.39.623A.294.294,0,0,1,4.338.449a.418.418,0,0,1,.137-.3A.955.955,0,0,1,4.776,0a.17.17,0,0,1,.083,0,.328.328,0,0,1,.083.039.554.554,0,0,1,.2.2A.423.423,0,0,1,5.207.51a.708.708,0,0,1-.084.253A.259.259,0,0,1,4.913.894Z" transform="matrix(0.998, -0.07, 0.07, 0.998, 27.944, 57.832)"/>
        <path id="Path_50900" data-name="Path 50900" d="M3.71,3.577q-.376.076-.786.177a7.036,7.036,0,0,1-.812.15,3.634,3.634,0,0,1-.779.016,1.528,1.528,0,0,1-.686-.228,5.229,5.229,0,0,1-.392-.443,1.251,1.251,0,0,1-.21-.388,1.061,1.061,0,0,1-.039-.422A2.465,2.465,0,0,1,.129,1.9a1.461,1.461,0,0,1,.3-.519A3,3,0,0,1,.865.973.774.774,0,0,1,.958.9C.983.89,1.007.876,1.027.862S1.073.834,1.1.819s.06-.036.1-.062A.268.268,0,0,1,1.266.725a.771.771,0,0,1,.078-.02c.022-.009.04,0,.056.032.063.124.117.236.163.333s.1.2.151.307c.015.026.007.048-.022.068s-.055.05-.08.077a.409.409,0,0,1-.088.072,2.654,2.654,0,0,1-.225.2,2.185,2.185,0,0,0-.217.2.808.808,0,0,0-.153.227A.51.51,0,0,0,.9,2.51a.813.813,0,0,0,.288.475.739.739,0,0,0,.42.124A1.919,1.919,0,0,0,2.1,3.038q.263-.07.509-.12a.185.185,0,0,0,.1-.113.182.182,0,0,0-.029-.158,1.436,1.436,0,0,1-.109-.206q-.058-.13-.108-.273c-.034-.1-.063-.189-.089-.281s-.044-.166-.055-.22A1.559,1.559,0,0,1,2.475.936,1.67,1.67,0,0,1,2.91.375,1.634,1.634,0,0,1,3.535.053,1.543,1.543,0,0,1,4.267.036a3.975,3.975,0,0,1,.5.122,1.387,1.387,0,0,1,.4.2,1.157,1.157,0,0,1,.29.312,1.554,1.554,0,0,1,.19.462,2.31,2.31,0,0,1,.033.235c.009.088.013.179.013.272s0,.182-.01.268a1.149,1.149,0,0,1-.034.22c-.007.035-.008.054,0,.058s.026,0,.062-.013l.242-.07c.031-.011.049-.014.055-.008a.151.151,0,0,1,.023.041c.03.08.053.145.068.2s.028.1.04.145.025.093.04.145.038.117.068.2c.009.022.012.036.008.041a.112.112,0,0,1-.045.023q-.325.08-.645.188c-.213.072-.421.134-.623.191-.085.026-.17.05-.255.073s-.171.046-.256.072c-.145.039-.281.075-.409.108A2.987,2.987,0,0,1,3.71,3.577ZM4.931,2.37c.014,0,.026-.048.037-.135a2.685,2.685,0,0,0-.011-.67.7.7,0,0,0-.1-.289A.645.645,0,0,0,4.682,1.1,1.218,1.218,0,0,0,4.435.97,1.261,1.261,0,0,0,4.164.9.606.606,0,0,0,3.916.9a1.261,1.261,0,0,0-.408.2.757.757,0,0,0-.269.324.835.835,0,0,0-.077.375,1,1,0,0,0,.073.326,1.774,1.774,0,0,0,.161.3q.1.147.186.307c.242-.068.46-.129.653-.181l.244-.064.22-.058c.065-.018.117-.033.158-.043Z" transform="matrix(0.998, -0.07, 0.07, 0.998, 26.295, 59.989)"/>
        <path id="Path_50901" data-name="Path 50901" d="M5.056.666c0,.022,0,.035,0,.038a.253.253,0,0,1-.039.018L4.8.762,4.461.824,4.107.9c-.119.026-.237.049-.355.072q-.211.052-.413.107t-.406.106c-.045.013-.089.025-.132.035a.945.945,0,0,0-.137.043,1.318,1.318,0,0,1,.159.134A1.564,1.564,0,0,1,3,1.6a1.469,1.469,0,0,1,.146.239.54.54,0,0,1,.062.24.668.668,0,0,1-.071.466,1.341,1.341,0,0,1-.3.36,1.452,1.452,0,0,1-.54.3q-.289.086-.6.155c-.13.033-.263.064-.4.093s-.269.056-.407.082a1.169,1.169,0,0,1-.15.031c-.051.007-.1.015-.151.024a.17.17,0,0,1-.049,0,.043.043,0,0,1-.057-.039L.466,3.436C.457,3.39.45,3.355.443,3.331L.423,3.26a.671.671,0,0,1-.017-.075l-.02-.109L.371,2.993a.073.073,0,0,1,.06-.061l.062-.01a.319.319,0,0,1,.063,0l.356-.068c.159-.032.324-.068.494-.108s.326-.082.47-.125A.92.92,0,0,0,2.158,2.5a.784.784,0,0,0,.321-.455.394.394,0,0,0-.121-.35.754.754,0,0,0-.409-.183,1.137,1.137,0,0,0-.538.041.564.564,0,0,0-.139.014c-.045.011-.093.021-.144.03-.091.021-.181.041-.272.061s-.182.037-.274.053c-.055.01-.11.021-.168.034a1.365,1.365,0,0,1-.175.028.146.146,0,0,1-.073-.008A.1.1,0,0,1,.142,1.7C.127,1.639.113,1.585.1,1.54s-.02-.088-.027-.126S.06,1.333.049,1.288s-.024-.1-.04-.163a.263.263,0,0,1,0-.041.352.352,0,0,0,0-.042C0,1.018.008,1,.035,1S.091.988.121.98A.884.884,0,0,1,.213.96L1.254.727Q2.092.54,2.941.377c.2-.036.392-.072.586-.111S3.916.191,4.111.15C4.244.126,4.37.1,4.49.07A3.476,3.476,0,0,1,4.849,0a.242.242,0,0,1,.068,0c.008,0,.015.021.021.053.013.073.025.134.033.182S4.988.33,5,.371s.019.084.027.13S5.044.6,5.056.666Z" transform="matrix(0.998, -0.07, 0.07, 0.998, 29.4, 63.142)"/>
        <path id="Path_50902" data-name="Path 50902" d="M.9,1.738a.624.624,0,0,1-.021.3.713.713,0,0,1-.043.067.17.17,0,0,1-.059.049c-.06.033-.116.066-.168.1A.3.3,0,0,1,.43,2.3a.413.413,0,0,1-.3-.145A.893.893,0,0,1,0,1.844a.22.22,0,0,1,.051-.164.514.514,0,0,1,.2-.2.414.414,0,0,1,.267-.051.644.644,0,0,1,.251.089A.256.256,0,0,1,.9,1.738Zm.734-.432a2.407,2.407,0,0,1,.484-.019,3.149,3.149,0,0,1,.463.069c.083.015.156.031.221.049a1.734,1.734,0,0,1,.183.061l.175.074c.058.025.126.054.2.084s.154.053.251.083.179.051.247.068a.327.327,0,0,0,.217-.011.5.5,0,0,0,.185-.126.611.611,0,0,0,.122-.2.489.489,0,0,0,.033-.228A1.143,1.143,0,0,0,4.345.99a.826.826,0,0,0-.09-.158A.783.783,0,0,0,4.138.7L4,.578A.085.085,0,0,1,3.975.483C4,.432,4.021.391,4.039.359S4.078.3,4.1.268s.045-.062.073-.1l.1-.134A.052.052,0,0,1,4.364.016a1.368,1.368,0,0,1,.319.265q.123.142.269.3a.516.516,0,0,1,.107.18,1.267,1.267,0,0,1,.142.33.852.852,0,0,1,.024.271,1.077,1.077,0,0,1-.056.263c-.03.09-.059.191-.087.3l-.156.255a.451.451,0,0,1-.195.191c-.048.022-.1.044-.156.064a1.293,1.293,0,0,1-.164.052l-.08.028a.54.54,0,0,1-.081.02.749.749,0,0,1-.264.026,2.176,2.176,0,0,1-.26-.038,4.362,4.362,0,0,1-.443-.118c-.145-.046-.289-.1-.435-.155A2.077,2.077,0,0,0,2.625,2.2L2.4,2.148a2.6,2.6,0,0,0-.685-.042l-.1,0-.1,0c-.038,0-.057-.019-.059-.061s-.008-.056-.011-.086-.006-.059-.011-.087,0-.066,0-.084,0-.035,0-.049,0-.031,0-.05a.666.666,0,0,0-.011-.083L1.4,1.379a.031.031,0,0,1,.028-.04Z" transform="matrix(0.998, -0.07, 0.07, 0.998, 30.352, 66.391)"/>
      </g>
      <g id="Group_37461" data-name="Group 37461" transform="translate(250.496 69.182) rotate(13)">
        <g id="Group_37227" data-name="Group 37227" transform="translate(0 0)">
          <path id="Path_50904" data-name="Path 50904" d="M1.024,3.047c.057-.09.117-.178.181-.265s.126-.177.186-.271q.419-.637.834-1.249T3.054.019A.034.034,0,0,1,3.107.009q.188.113.358.238T3.794.5q.32.28.573.549a2.4,2.4,0,0,1,.395.549,1.309,1.309,0,0,1,.147.573,1.275,1.275,0,0,1-.17.623,1.456,1.456,0,0,1-.295.388,1.281,1.281,0,0,1-.36.231,1.734,1.734,0,0,1-.418.117,3.522,3.522,0,0,1-.465.038.087.087,0,0,0-.056.007.1.1,0,0,0-.021.05q-.062.391-.112.732t-.108.667c-.038.216-.078.429-.121.638s-.091.424-.147.644c-.016.057-.044.077-.087.059q-.179-.126-.359-.257c-.121-.087-.238-.168-.352-.241a.307.307,0,0,1-.056-.044c-.005-.007,0-.025.007-.056q.048-.279.1-.638T2,4.406q.053-.364.1-.706c.03-.228.058-.424.083-.592q-.2.278-.356.521l-.317.478-.314.476q-.159.238-.345.5a.062.062,0,0,1-.09.011C.662,5.031.582,4.974.518,4.926S.4,4.836.344,4.8.243,4.73.2,4.7.1,4.638.035,4.6A.114.114,0,0,1,0,4.572s0-.017.018-.038l.42-.618q.165-.243.278-.4c.075-.107.135-.2.181-.265S.985,3.111,1.024,3.047ZM3.332,1.2a.555.555,0,0,0-.09.121c-.055.084-.114.178-.175.283q-.116.177-.254.4c-.057.082-.108.158-.15.226s-.07.113-.1.159-.045.07-.041.073a1.535,1.535,0,0,0,.337.176,1.465,1.465,0,0,0,.373.092A.809.809,0,0,0,3.572,2.7a.461.461,0,0,0,.249-.2.6.6,0,0,0,.1-.326.9.9,0,0,0-.069-.349,1.248,1.248,0,0,0-.208-.335A1.951,1.951,0,0,0,3.332,1.2Z"/>
          <path id="Path_50905" data-name="Path 50905" d="M1.2,1.564l-.047-.025s-.015.007-.032.032a2.713,2.713,0,0,0-.166.317.852.852,0,0,0-.074.334.823.823,0,0,0,.077.349,1.226,1.226,0,0,0,.283.374,1.079,1.079,0,0,0,.284.142.91.91,0,0,0,.258.043A.767.767,0,0,0,2,3.1a1.253,1.253,0,0,0,.186-.07c.053-.03.082-.043.088-.038a.626.626,0,0,1,.057.069c.032.042.054.074.069.1a.807.807,0,0,0,.069.1l.208.291c.018.026.027.043.024.05s-.015.019-.038.034a1.729,1.729,0,0,1-.835.275,1.7,1.7,0,0,1-.739-.138,1.88,1.88,0,0,1-.6-.411A2.042,2.042,0,0,1,.1,2.811a1.792,1.792,0,0,1-.065-.943,2.522,2.522,0,0,1,.371-.851A4.71,4.71,0,0,1,.934.473,2.092,2.092,0,0,1,1.532.1,1.454,1.454,0,0,1,2.2.006a1.586,1.586,0,0,1,.749.3,1.152,1.152,0,0,1,.419.412,1.637,1.637,0,0,1,.2.54,1.8,1.8,0,0,1,.015.57,1.573,1.573,0,0,1-.147.5,2.494,2.494,0,0,1-.181.306q-.1.143-.2.277c-.021.028-.043.034-.068.016q-.3-.217-.447-.335c-.1-.077-.191-.148-.276-.21-.066-.054-.152-.121-.256-.2l-.313-.238c-.1-.079-.2-.152-.3-.22ZM1.632.976c-.006.008.027.04.1.093s.155.11.245.169l.251.168.121.083.506.369a.648.648,0,0,0,.073-.568.876.876,0,0,0-.359-.4A.912.912,0,0,0,2.087.762a.673.673,0,0,0-.251.05A.468.468,0,0,0,1.632.976Z" transform="translate(3.375 3.915)"/>
          <path id="Path_50906" data-name="Path 50906" d="M3.65.808a.129.129,0,0,1,0,.056.071.071,0,0,1-.037.061q-.141.112-.235.192c-.062.054-.125.111-.188.17a.057.057,0,0,1-.083-.015,2.733,2.733,0,0,0-.228-.262A.9.9,0,0,0,2.617.819.365.365,0,0,0,2.355.8a.369.369,0,0,0-.2.245.455.455,0,0,0,.022.271c.036.1.079.209.128.319s.1.216.145.322a.729.729,0,0,1,.073.281,1.434,1.434,0,0,1-.1.731,1.134,1.134,0,0,1-.936.684,1.3,1.3,0,0,1-.6-.071A1.37,1.37,0,0,1,.35,3.216a1.432,1.432,0,0,1-.334-.667A.194.194,0,0,1,0,2.476.108.108,0,0,1,.049,2.4c.071-.061.144-.117.219-.171l.219-.16c.038-.034.067-.051.085-.05a.145.145,0,0,1,.069.034.647.647,0,0,1,.122.219A2.1,2.1,0,0,0,.929,2.6a.8.8,0,0,0,.229.248.3.3,0,0,0,.322-.014A.4.4,0,0,0,1.715,2.5a1.04,1.04,0,0,0-.092-.556,4.068,4.068,0,0,1-.2-.538A1.467,1.467,0,0,1,1.372.949,1,1,0,0,1,1.479.543,1.4,1.4,0,0,1,1.791.154.611.611,0,0,1,2.232,0a1.509,1.509,0,0,1,.539.118,2.1,2.1,0,0,1,.511.3A1.666,1.666,0,0,1,3.65.808Z" transform="translate(6.022 5.951)"/>
          <path id="Path_50907" data-name="Path 50907" d="M1.131,4.628c-.049-.044-.073-.077-.074-.1s.02-.059.064-.108L1.2,4.341c.019-.021.035-.04.049-.057l.044-.057.06-.077c-.176-.028-.327-.058-.455-.091a1.227,1.227,0,0,1-.343-.142.97.97,0,0,1-.268-.252,2,2,0,0,1-.224-.413,1.016,1.016,0,0,1-.054-.239,1.2,1.2,0,0,1,0-.245,1.748,1.748,0,0,1,.089-.39,1.564,1.564,0,0,1,.157-.318,2.709,2.709,0,0,1,.211-.284l.254-.3q.265-.329.523-.654T1.758.173L1.863.036A.163.163,0,0,1,1.911,0c.008,0,.022,0,.042.019q.164.146.277.253A3.41,3.41,0,0,0,2.5.5a.18.18,0,0,1,.049.067c0,.016-.008.041-.036.077l-.35.426-.336.407c-.113.137-.224.277-.335.424s-.224.306-.339.478a.632.632,0,0,0-.136.3.663.663,0,0,0,.027.3.62.62,0,0,0,.152.247.6.6,0,0,0,.242.15.581.581,0,0,0,.295.014.678.678,0,0,0,.317-.174q.176-.189.379-.427t.4-.466q.192-.228.353-.423c.108-.13.194-.233.26-.309l.079-.1c.031-.04.059-.043.085-.01q.162.135.3.249c.093.076.177.145.249.208a.054.054,0,0,1,.011.085l-.09.116-.132.17c-.046.059-.089.115-.126.168s-.067.092-.086.116l-.375.482c-.1.128-.19.246-.272.357s-.17.222-.26.333-.2.246-.337.4l-.116.148c-.043.056-.089.113-.137.171s-.1.114-.146.169-.09.1-.125.137-.063.067-.095.1a.833.833,0,0,1-.1.1.2.2,0,0,1-.093.058A.2.2,0,0,1,1.575,5a1.51,1.51,0,0,1-.232-.181C1.274,4.756,1.2,4.691,1.131,4.628Z" transform="translate(8.43 7.21)"/>
          <path id="Path_50908" data-name="Path 50908" d="M2.7.77c.09-.121.181-.239.275-.356S3.152.182,3.24.065Q3.287.006,3.305,0c.012,0,.028,0,.047.019L3.9.458c.024.019.036.031.037.039a.153.153,0,0,1-.026.057Q3.824.676,3.725.8t-.187.247q-.2.275-.393.535c-.13.174-.26.352-.394.535s-.267.362-.4.536-.269.35-.41.527q-.3.378-.6.765c-.2.259-.4.515-.585.769l-.034.042c-.031.039-.051.059-.062.06S.622,4.8.579,4.777L.445,4.684l-.1-.069-.1-.07L.114,4.452.049,4.4A.166.166,0,0,1,0,4.334c0-.016.007-.039.032-.07A.879.879,0,0,1,.1,4.17a.876.876,0,0,0,.065-.093Q.4,3.771.628,3.464t.47-.619c.093-.118.187-.236.279-.356s.183-.24.274-.361q.305-.395.556-.715T2.7.77Z" transform="translate(10.839 8.197)"/>
          <path id="Path_50909" data-name="Path 50909" d="M1.464,3.057c-.041.051-.09.11-.148.177s-.115.137-.171.211-.107.147-.152.217a.655.655,0,0,0-.088.205l-.019.077a.2.2,0,0,0,0,.115.12.12,0,0,0,.1.073.549.549,0,0,0,.259-.038.859.859,0,0,0,.2-.083c.066-.037.131-.072.2-.1.024-.014.038-.017.042-.01l.026.045.107.222c.025.053.059.129.1.228a.286.286,0,0,1,.011.053c0,.018-.009.033-.032.047a2.313,2.313,0,0,1-.4.187,4.01,4.01,0,0,1-.411.119,1.432,1.432,0,0,1-.442.03.683.683,0,0,1-.385-.147.621.621,0,0,1-.245-.392,1.064,1.064,0,0,1,.037-.465A2.008,2.008,0,0,1,.272,3.33c.1-.166.21-.325.323-.477s.223-.287.332-.41.191-.222.247-.3c.043-.037.065-.064.066-.082s-.018-.045-.062-.079c-.06-.054-.114-.1-.163-.141A1.5,1.5,0,0,1,.865,1.7C.833,1.673.819,1.654.82,1.639A.192.192,0,0,1,.862,1.57q.1-.113.19-.206t.17-.191a.194.194,0,0,1,.054-.044c.007,0,.024.011.052.032q.106.085.218.163c.075.051.151.1.228.15a.055.055,0,0,0,.069,0l.047-.059q.239-.282.5-.592T2.9.229a1.139,1.139,0,0,0,.092-.1L3.076.022C3.1,0,3.119-.007,3.14.016q.143.135.251.223l.243.2a.275.275,0,0,1,.046.056c0,.009-.015.033-.054.073-.1.107-.2.22-.309.339s-.207.231-.307.337-.2.218-.3.343-.206.242-.306.349c-.011,0-.017.009-.017.015s-.005.009-.013.01c-.018.023-.018.043,0,.059.056.052.111.1.165.144a1.538,1.538,0,0,1,.155.144.131.131,0,0,1,.031.045c0,.007-.008.022-.027.046l-.342.422c-.019.023-.034.035-.045.037a.074.074,0,0,1-.045-.022c-.046-.031-.1-.069-.16-.115S2,2.633,1.952,2.6a.1.1,0,0,0-.147.026c-.047.066-.105.141-.177.225S1.5,3,1.464,3.057Z" transform="translate(12.651 9.585)"/>
        </g>
      </g>
    </g>
  </g>
</svg>
