<svg xmlns="http://www.w3.org/2000/svg" width="33.436" height="39.49" viewBox="0 0 33.436 39.49">
  <g id="Group_5" data-name="Group 5" transform="translate(0.3 0.3)">
    <g id="Group_4" data-name="Group 4">
      <path id="Path_1" data-name="Path 1" d="M14.318,15.361A4.747,4.747,0,0,0,18.924,10.5a4.747,4.747,0,0,0-4.606-4.863A4.747,4.747,0,0,0,9.711,10.5,4.747,4.747,0,0,0,14.318,15.361Zm0-8.339a3.39,3.39,0,0,1,3.29,3.474,3.39,3.39,0,0,1-3.29,3.475,3.39,3.39,0,0,1-3.29-3.475A3.39,3.39,0,0,1,14.318,7.023Z" transform="translate(2.319 2.993)" fill="#e03c8a" stroke="#e03c8a" stroke-width="0.6"/>
      <path id="Path_2" data-name="Path 2" d="M16.867,36.709l9.9-14.854c3.713-5.143,3.175-13.6-1.149-18.09a12.043,12.043,0,0,0-17.5,0C3.794,8.259,3.257,16.712,6.955,21.834Zm-7.835-32a10.787,10.787,0,0,1,15.671,0c3.9,4.054,4.384,11.689,1.015,16.357l-8.85,13.283L8,21.052C4.648,16.4,5.129,8.769,9.032,4.714Z" transform="translate(-0.514)" fill="#e03c8a" stroke="#e03c8a" stroke-width="0.6"/>
      <path id="Path_3" data-name="Path 3" d="M23.05,20.189a.534.534,0,0,0-.608.365c-.035.228.18.435.48.461,5.755.514,8.82,1.9,8.82,2.7,0,1.128-5.83,2.7-15.323,2.7s-15.325-1.574-15.325-2.7c0-.8,3.065-2.19,8.82-2.7.3-.027.515-.234.48-.461a.532.532,0,0,0-.607-.365C4.025,20.7,0,22.156,0,23.719c0,1.756,5.64,3.534,16.419,3.534s16.417-1.778,16.417-3.534C32.836,22.156,28.811,20.7,23.05,20.189Z" transform="translate(0 11.636)" fill="#e03c8a" stroke="#e03c8a" stroke-width="0.6"/>
    </g>
  </g>
</svg>
