<svg xmlns="http://www.w3.org/2000/svg" xmlns:xlink="http://www.w3.org/1999/xlink" width="163" height="100" viewBox="0 0 163 100">
  <defs>
    <filter id="Rectangle_2007" x="0" y="0" width="163" height="100" filterUnits="userSpaceOnUse">
      <feOffset input="SourceAlpha"/>
      <feGaussianBlur stdDeviation="1.5" result="blur"/>
      <feFlood flood-opacity="0.51"/>
      <feComposite operator="in" in2="blur"/>
      <feComposite in="SourceGraphic"/>
    </filter>
  </defs>
  <g id="Group_18568" data-name="Group 18568" transform="translate(-1884.5 259.5)">
    <g id="Group_18550" data-name="Group 18550" transform="translate(552 -1270)">
      <g id="Group_18547" data-name="Group 18547" transform="translate(1354.614 1028.829)">
        <g id="Group_18420" data-name="Group 18420" transform="translate(2.676 0)">
          <path id="Path_14805" data-name="Path 14805" d="M-99.737,36.364a10.39,10.39,0,0,0-3.443,2.628l2.1,4.494A6.275,6.275,0,0,1-97.949,40.2a6.357,6.357,0,0,1,8.439,3.07,6.358,6.358,0,0,1-3.071,8.437,6.355,6.355,0,0,1-8.436-3.071l-8.564-18.36a2.117,2.117,0,0,0-2.813-1.023,2.114,2.114,0,0,0-1.021,2.811l8.563,18.359a10.577,10.577,0,0,0,14.059,5.12,10.581,10.581,0,0,0,5.118-14.062A10.581,10.581,0,0,0-99.737,36.364Z" transform="translate(135.492 0.571)" fill="#415ba4" stroke="#415ba4" stroke-width="1"/>
          <path id="Path_14806" data-name="Path 14806" d="M-98.551,34.628A10.406,10.406,0,0,0-94.32,33.7V28.743a6.3,6.3,0,0,1-4.231,1.651,6.355,6.355,0,0,1-6.349-6.348A6.355,6.355,0,0,1-98.551,17.7a6.355,6.355,0,0,1,6.345,6.348v8.463s4.231-2.116,4.231-6.348V24.046A10.579,10.579,0,0,0-98.551,13.465a10.583,10.583,0,0,0-10.583,10.581A10.583,10.583,0,0,0-98.551,34.628Z" transform="translate(137.702 -7.116)" fill="#415ba4" stroke="#415ba4" stroke-width="1"/>
          <path id="Path_14807" data-name="Path 14807" d="M-52.149,32.51a2.117,2.117,0,0,0-2.117-2.117s-.128,0-1.059,0a6.357,6.357,0,0,1-6.348-6.348A6.357,6.357,0,0,1-55.325,17.7a6.335,6.335,0,0,1,5.959,4.233h-8.074a2.116,2.116,0,0,0-2.116,2.114,2.118,2.118,0,0,0,2.116,2.117h12.7V24.046A10.583,10.583,0,0,0-55.325,13.465a10.581,10.581,0,0,0-10.58,10.581,10.581,10.581,0,0,0,10.58,10.581h1.059A2.117,2.117,0,0,0-52.149,32.51Z" transform="translate(159.016 -7.116)" fill="#415ba4" stroke="#415ba4" stroke-width="1"/>
          <path id="Path_14808" data-name="Path 14808" d="M-48.938,52.332a4.236,4.236,0,0,1-4.23-4.233V39.634h1.057A2.116,2.116,0,0,0-50,37.518,2.116,2.116,0,0,0-52.111,35.4h-1.057V31.171a2.117,2.117,0,0,0-2.117-2.117A2.117,2.117,0,0,0-57.4,31.171V48.1a8.49,8.49,0,0,0,8.463,8.464,2.116,2.116,0,0,0,2.117-2.116A2.116,2.116,0,0,0-48.938,52.332Z" transform="translate(163.209 0.57)" fill="#415ba4" stroke="#415ba4" stroke-width="1"/>
          <path id="Path_14809" data-name="Path 14809" d="M-63.838,32.511a2.116,2.116,0,0,0-2.116-2.117A6.356,6.356,0,0,1-72.3,24.046,6.355,6.355,0,0,1-65.954,17.7a2.116,2.116,0,0,0,2.116-2.117,2.116,2.116,0,0,0-2.116-2.116,10.581,10.581,0,0,0-10.581,10.58,10.58,10.58,0,0,0,10.581,10.58A2.115,2.115,0,0,0-63.838,32.511Z" transform="translate(153.775 -7.115)" fill="#415ba4" stroke="#415ba4" stroke-width="1"/>
          <path id="Path_14810" data-name="Path 14810" d="M-87.892,32.509V22.987A5.3,5.3,0,0,1-82.6,17.7a5.3,5.3,0,0,1,5.29,5.29v9.523A2.117,2.117,0,0,0-75.2,34.625a2.116,2.116,0,0,0,2.117-2.116V22.987A9.523,9.523,0,0,0-82.6,13.464a9.522,9.522,0,0,0-9.521,9.523l0,9.523a2.117,2.117,0,0,0,2.116,2.116A2.118,2.118,0,0,0-87.892,32.509Z" transform="translate(146.087 -7.116)" fill="#415ba4" stroke="#415ba4" stroke-width="1"/>
          <path id="Path_14811" data-name="Path 14811" d="M-80.836,33.306a10.58,10.58,0,0,0-10.58,10.58,10.58,10.58,0,0,0,10.58,10.581h1.057a2.116,2.116,0,0,0,2.117-2.116,2.116,2.116,0,0,0-2.117-2.117s-.127,0-1.057,0a6.356,6.356,0,0,1-6.348-6.348,6.355,6.355,0,0,1,6.348-6.347,6.336,6.336,0,0,1,5.959,4.231h-8.074a2.115,2.115,0,0,0-2.116,2.116A2.116,2.116,0,0,0-82.952,46h12.7V43.886A10.581,10.581,0,0,0-80.836,33.306Z" transform="translate(146.438 2.667)" fill="#415ba4" stroke="#415ba4" stroke-width="1"/>
          <path id="Path_14812" data-name="Path 14812" d="M-63.828,33.306A10.581,10.581,0,0,0-74.409,43.887,10.581,10.581,0,0,0-63.828,54.469a10.377,10.377,0,0,0,4.231-.927V48.584a6.3,6.3,0,0,1-4.231,1.651,6.357,6.357,0,0,1-6.348-6.348,6.356,6.356,0,0,1,6.348-6.348,6.355,6.355,0,0,1,6.347,6.348V52.35s4.231-2.116,4.231-6.348V43.887A10.58,10.58,0,0,0-63.828,33.306Z" transform="translate(154.823 2.667)" fill="#415ba4" stroke="#415ba4" stroke-width="1"/>
          <path id="Path_14813" data-name="Path 14813" d="M-100.526,9.41a2.121,2.121,0,0,0-2.814,1.026l-8.59,18.393a6.358,6.358,0,0,1-8.437,3.071,6.356,6.356,0,0,1-3.07-8.437A6.352,6.352,0,0,1-115,20.393a6.3,6.3,0,0,1,3.138,3.285l2.095-4.494a10.4,10.4,0,0,0-3.444-2.628,10.582,10.582,0,0,0-14.062,5.118,10.582,10.582,0,0,0,5.118,14.062,10.579,10.579,0,0,0,14.06-5.12L-99.5,12.223A2.115,2.115,0,0,0-100.526,9.41Z" transform="translate(128.268 -9.213)" fill="#415ba4" stroke="#415ba4" stroke-width="1"/>
        </g>
        <g id="Group_18421" data-name="Group 18421" transform="translate(39.215 48.87)">
          <path id="Path_14814" data-name="Path 14814" d="M-100.131,44.527a4.891,4.891,0,0,1-3.468-1.433.675.675,0,0,1,0-.951.672.672,0,0,1,.951,0,3.56,3.56,0,0,0,5.033,0,.672.672,0,0,1,.951,0,.672.672,0,0,1,0,.951A4.888,4.888,0,0,1-100.131,44.527Z" transform="translate(103.795 -41.944)" fill="#415ba4" stroke="#415ba4" stroke-width="1"/>
        </g>
        <g id="Group_18422" data-name="Group 18422" transform="translate(40.822 46.948)">
          <path id="Path_14815" data-name="Path 14815" d="M-100.662,42.4a2.667,2.667,0,0,1-1.893-.784.561.561,0,0,1,0-.791.559.559,0,0,1,.79,0,1.552,1.552,0,0,0,1.1.457h0a1.547,1.547,0,0,0,1.1-.457.559.559,0,0,1,.79,0,.558.558,0,0,1,0,.791,2.662,2.662,0,0,1-1.892.785Z" transform="translate(102.719 -40.657)" fill="#415ba4" stroke="#415ba4" stroke-width="1"/>
        </g>
        <g id="Group_18423" data-name="Group 18423" transform="translate(36.148 51.79)">
          <path id="Path_14816" data-name="Path 14816" d="M-99.118,47.869a9.183,9.183,0,0,1-6.513-2.695.747.747,0,0,1,0-1.056.747.747,0,0,1,1.056,0,7.725,7.725,0,0,0,10.916,0,.747.747,0,0,1,1.056,0,.747.747,0,0,1,0,1.056A9.183,9.183,0,0,1-99.118,47.869Z" transform="translate(105.849 -43.9)" fill="#415ba4" stroke="#415ba4" stroke-width="1"/>
        </g>
        <g id="Group_18424" data-name="Group 18424" transform="translate(0 31.747)">
          <path id="Path_14817" data-name="Path 14817" d="M-127.962,55.861h.388l13.506-4.906a10.58,10.58,0,0,0,6.223-13.511,10.584,10.584,0,0,0-13.561-6.331,10.582,10.582,0,0,0-6.329,13.56,10.346,10.346,0,0,0,2.317,3.662l4.661-1.695a6.291,6.291,0,0,1-3-3.412,6.357,6.357,0,0,1,3.8-8.139,6.359,6.359,0,0,1,8.133,3.8,6.359,6.359,0,0,1-3.8,8.136l-13.045,4.736a2.118,2.118,0,0,0-1.266,2.711A2.112,2.112,0,0,0-127.962,55.861Z" transform="translate(130.06 -30.476)" fill="#415ba4" stroke="#415ba4" stroke-width="1"/>
          <path id="Path_14818" data-name="Path 14818" d="M-112.216,44.644h-.378l-11.65,4.231h12.028A2.115,2.115,0,0,0-110.1,46.76,2.116,2.116,0,0,0-112.216,44.644Z" transform="translate(132.928 -23.49)" fill="#415ba4" stroke="#415ba4" stroke-width="1"/>
        </g>
      </g>
      <g id="Group_18549" data-name="Group 18549" transform="translate(1337 1015)">
        <g transform="matrix(1, 0, 0, 1, -4.5, -4.5)" filter="url(#Rectangle_2007)">
          <g id="Rectangle_2007-2" data-name="Rectangle 2007" transform="translate(4.5 4.5)" fill="none" stroke="#415ba4" stroke-width="1.5">
            <rect width="154" height="91" stroke="none"/>
            <rect x="0.75" y="0.75" width="152.5" height="89.5" fill="none"/>
          </g>
        </g>
      </g>
    </g>
  </g>
</svg>
