<svg xmlns="http://www.w3.org/2000/svg" xmlns:xlink="http://www.w3.org/1999/xlink" width="256" height="410" viewBox="0 0 256 410">
  <defs>
    <clipPath id="clip-Artboard_2">
      <rect width="256" height="410"/>
    </clipPath>
  </defs>
  <g id="Artboard_2" data-name="Artboard – 2" clip-path="url(#clip-Artboard_2)">
    <g id="Group_37633" data-name="Group 37633" transform="translate(1)">
      <path id="Fill_1" data-name="Fill 1" d="M4.076,94.255H40.1l4.049-71.312a21.041,21.041,0,0,0,0-2.422A21.96,21.96,0,0,0,20.856.035,21.857,21.857,0,0,0,.035,22.944Z" transform="translate(208.128 317.452)" fill="#f6b09d"/>
      <path id="Fill_3" data-name="Fill 3" d="M37.193,94.255l7.057-70.4a22.681,22.681,0,0,0,.106-2.42A21.981,21.981,0,0,0,21.876,0,21.943,21.943,0,0,0,0,22.03l1,72.226Z" transform="translate(7.836 317.452)" fill="#f6b09d"/>
      <path id="Fill_5" data-name="Fill 5" d="M2.713,128.824s36.649,11.681,47.064-7.062C46.767,76.822,54.243,12.73,16.633.388-6.675-7.261,1.326,100.638,1.326,100.638Z" transform="translate(206.222 256.276)" fill="#14225d"/>
      <path id="Fill_8" data-name="Fill 8" d="M170.148,167.892,180.8,12.849,146.921,3.54,134.079,0H41.495L29.145,3.616,0,13.519,2.972,167.892Z" transform="translate(42.059 243.815)" fill="#14225d"/>
      <path id="Fill_10" data-name="Fill 10" d="M0,56.235,40.357,97.6,84.992,56.235,65.608,51.7,66.474,0,19.589,2.21,18.287,51.7Z" transform="translate(87.995 189.265)" fill="#f6b09d"/>
      <path id="Fill_12" data-name="Fill 12" d="M52.9,26.2,54.432,0H0L2.85,26.384S17.7,45.519,32.681,43.54,52.9,26.2,52.9,26.2" transform="translate(101.141 189.001)" fill="#ef9d89"/>
      <path id="Fill_14" data-name="Fill 14" d="M151.523,79.888c1.063,13.569-1.4,61.655-3.5,74.052-5.688,33.731-43.379,57.179-73.129,57.179s-63.606-20.956-70.6-57.179C1.509,139.5,0,100.709,0,84.227,0,15.6,30.733,0,74.9,0s70.273-1.043,76.625,79.888" transform="translate(53.312 13.038)" fill="#f6b09d"/>
      <path id="Fill_16" data-name="Fill 16" d="M.486,12.326c1.4,1.152-.036-4.29,15.673-5.332,4.412-.29,16.321,2.407,16.183-.1S33.052.214,28.63.079C21.9-.133,11.822-.092,7.039,2.486.576,5.969-.923,11.169.486,12.326" transform="translate(75.207 89.65)" fill="#583536"/>
      <path id="Fill_18" data-name="Fill 18" d="M33.372,12.358C31.909,13.512,33.4,8.069,16.939,7,12.32,6.694-.141,9.376,0,6.865.128,4.357-.774.187,3.866.057,10.912-.14,21.307.049,26.32,2.638c6.782,3.5,8.525,8.569,7.052,9.72" transform="translate(147.858 89.605)" fill="#583536"/>
      <path id="Fill_20" data-name="Fill 20" d="M35.4,17.7A17.7,17.7,0,1,1,17.7,0,17.7,17.7,0,0,1,35.4,17.7" transform="translate(33.346 114.196)" fill="#f6b09d"/>
      <path id="Fill_22" data-name="Fill 22" d="M35.4,17.7A17.7,17.7,0,1,1,17.7,0,17.7,17.7,0,0,1,35.4,17.7" transform="translate(187.389 114.196)" fill="#f6b09d"/>
      <path id="Fill_24" data-name="Fill 24" d="M166.255,10.755c11.341,13.582,14.137,37.323,13.8,72.162-.13,14.469-8.787,36.338-12.368,48.439-2,6.766-8.795,0-8.795,0s6.686-8.719,5.107-20.216c-1.419-10.3-11.362-22.5-7.71-37.881-7.734-29.722-64.093-2.365-64.093-2.365S29.9,41.8,28.317,74.234c-.581,11.992-5.708,26.251-7.161,40.622-1.3,12.892,3.11,26.545,3.11,26.545s-7.928.682-9.79-6.927C10.411,117.869,1.632,107.8.318,98.242-1.638,84.006,5.554,25.823,18.7,10.755s136.218-13.587,147.56,0" transform="translate(38.837 -0.659)" fill="#433f3a"/>
      <path id="Fill_26" data-name="Fill 26" d="M16.5,8.247A8.249,8.249,0,1,1,8.245,0,8.256,8.256,0,0,1,16.5,8.247" transform="translate(83.185 114.195)" fill="#432918"/>
      <path id="Fill_28" data-name="Fill 28" d="M16.5,8.247A8.249,8.249,0,1,1,8.25,0,8.248,8.248,0,0,1,16.5,8.247" transform="translate(156.491 114.195)" fill="#432918"/>
      <path id="Fill_34" data-name="Fill 34" d="M118,3.543,56.759,62.618,0,3.618,12.374,0h4.012L56.759,41.364,101.385,0h3.753Z" transform="translate(71.601 245.513)" fill="#041144"/>
      <path id="Fill_42" data-name="Fill 42" d="M49.064,91.827l2.609,29.7S10.421,132.9,0,114.144C5.682,84.155-8.247,23.407,41.566.891c25.287-11.43,7.5,90.936,7.5,90.936" transform="translate(-1 257.334)" fill="#14225d"/>
      <path id="Fill_26-2" data-name="Fill 26" d="M51.87,0A25.938,25.938,0,0,1,25.936,25.936,25.937,25.937,0,0,1,0,0Z" transform="translate(105.036 176.069)" fill="#fefefe"/>
    </g>
  </g>
</svg>
