<svg xmlns="http://www.w3.org/2000/svg" xmlns:xlink="http://www.w3.org/1999/xlink" width="148.521" height="262.088" viewBox="0 0 148.521 262.088">
  <defs>
    <filter id="Path_51189" x="0" y="0" width="148.521" height="262.088" filterUnits="userSpaceOnUse">
      <feOffset input="SourceAlpha"/>
      <feGaussianBlur stdDeviation="1.5" result="blur"/>
      <feFlood flood-opacity="0.161"/>
      <feComposite operator="in" in2="blur"/>
      <feComposite in="SourceGraphic"/>
    </filter>
  </defs>
  <g transform="matrix(1, 0, 0, 1, 0, 0)" filter="url(#Path_51189)">
    <path id="Path_51189-2" data-name="Path 51189" d="M190.148,206.439h-.007c3.212-22.3.217-43.259-3.372-57.393-1.734-6.821-6.275-12.752-8.258-16.6-5.275-10.242-39.112-22.626-39.112-22.626-3.694-1.028-4.164-6.153-3.266-8.226.035-.078,1.095-5.781,1.652-7.462a1.283,1.283,0,0,0,.521.124c1.173,0,2.127-1.661,2.127-3.711,0-1.807-.741-3.31-1.722-3.64l-.544-3.193c-1.178-6.363-9.9-10.383-14.863-10.383s-13.77,3.323-15.153,10.383l-.338,3.175c-1.03.26-1.818,1.791-1.818,3.658,0,2.05.951,3.711,2.127,3.711a1.285,1.285,0,0,0,.491-.11c.431,1.447,1.644,7.369,1.679,7.447.9,2.072.43,7.2-3.266,8.226,0,0-33.835,12.384-39.11,22.626-1.982,3.846-6.524,9.777-8.258,16.6-3.591,14.133-6.586,35.093-3.372,57.393h-.007s-3.52,11.387-2.7,17.158c.357,2.514,1.022,4.232,5.716,9.333,0,0,3.673,2.367,2.652-.746l-1.427-7.841,4.286-5.35s1.224,3.234.408,5.35l-.819,2.866a4.256,4.256,0,0,0,4.9-2.121s3.83-5.008-.944-13.748c-.231-.423.557-4.9.557-4.9,2.18-3.228,10.009-19.48,10.089-33.154l6.085-25.267s-4.872,25.421-5,38.685c0,0-3.225,24.779,4.253,45.052,0,0,.962,12.633,2.7,19.686,0,0-5.214,21.446,3.044,41.719l1.976,9.244c.184,2.313.833,3.647.3,4.714a11.59,11.59,0,0,0-.975,3.633c-1.962,3.882-7.231,8.8-9.4,10.3-4.708,3.251,6.328,7.049,14.584,4.581,2.732-.815,4.389-4.451,5.472-7.185.682-1.723,4.758-5.095,6.083-6.557,2.324-2.564.775-6.537.745-7.674v0a.851.851,0,0,0,.194-.4c2.959-19.615,11-38.269,8.392-49.139a82.37,82.37,0,0,0,5.758-24.029,82.309,82.309,0,0,0,5.758,24.029c-2.608,10.87,5.431,29.524,8.392,49.139a.821.821,0,0,0,.194.4v0c-.03,1.138-1.579,5.111.743,7.674,1.327,1.463,5.4,4.834,6.085,6.557,1.083,2.734,2.74,6.37,5.473,7.185,8.256,2.468,19.292-1.33,14.583-4.581-2.165-1.493-7.435-6.415-9.394-10.3a11.592,11.592,0,0,0-.979-3.633c-.526-1.067.121-2.4.305-4.714l1.976-9.244c8.258-20.272,3.042-41.719,3.042-41.719,1.74-7.053,2.7-19.686,2.7-19.686,7.481-20.272,4.257-45.052,4.257-45.052-.126-13.265-5-38.685-5-38.685l6.083,25.267c.078,13.673,7.913,29.925,10.089,33.154,0,0,.79,4.478.561,4.9-4.776,8.739-.947,13.748-.947,13.748a4.259,4.259,0,0,0,4.9,2.121l-.819-2.866c-.818-2.116.408-5.35.408-5.35l4.286,5.35-1.425,7.841c-1.022,3.113,2.651.746,2.651.746,4.694-5.1,5.36-6.819,5.716-9.333C193.666,217.826,190.148,206.439,190.148,206.439Z" transform="translate(-48.95 -68.83)" fill="#c72238"/>
  </g>
</svg>
