<svg xmlns="http://www.w3.org/2000/svg" xmlns:xlink="http://www.w3.org/1999/xlink" width="99.038" height="259.802" viewBox="0 0 99.038 259.802">
  <defs>
    <filter id="Path_51077" x="0" y="0" width="99.038" height="259.802" filterUnits="userSpaceOnUse">
      <feOffset input="SourceAlpha"/>
      <feGaussianBlur stdDeviation="1.5" result="blur"/>
      <feFlood flood-opacity="0.161"/>
      <feComposite operator="in" in2="blur"/>
      <feComposite in="SourceGraphic"/>
    </filter>
  </defs>
  <g transform="matrix(1, 0, 0, 1, 0, 0)" filter="url(#Path_51077)">
    <path id="Path_51077-2" data-name="Path 51077" d="M277.781,208.034c-1.077-21.555-.07-29.462-3.115-37.909-2.389-6.633-5.931-29.836-5.931-29.836.429-20.845-18.741-26.767-18.741-26.767-7.907-.966-7.316-10.339-6.832-13.761.144-.19.276-.37.378-.521a20.343,20.343,0,0,0,1.672-5.416.614.614,0,0,0,.346.13c.777,0,1.408-1.749,1.408-3.907,0-1.9-.489-3.483-1.139-3.831l-.36-3.362c-.779-6.7-6.559-8.523-9.846-8.523s-9.12,1.091-10.04,8.523l-.221,3.343c-.683.275-1.206,1.886-1.206,3.85,0,2.159.63,3.907,1.409,3.907a.6.6,0,0,0,.326-.116c.288,1.532.668,3.446,1,4.679h0s3.076,13.819-6.618,15c0,0-19.171,5.921-18.739,26.767,0,0-3.543,23.2-5.932,29.836-3.045,8.447-2.038,16.354-3.115,37.909l-2.37,15.2a30.469,30.469,0,0,0,3.741,9.655s2.4,2.448,1.734-.771L194.654,224l2.805-5.533a14.78,14.78,0,0,1,.267,5.533l-.536,2.963s2,1.029,3.2-2.19c0,0,2.939-8.622-.934-15.191,0,0,.081-1.864.2-2.471.976-5.162,8.863-29.2,10.139-35.558a122.464,122.464,0,0,0,3.925-19.4c-.359,11.97-1.015,20.695-1.852,27.45,0,0-5.816,33.873-.861,58.744a55.893,55.893,0,0,1,0,17.29s-.433,15.16,2.584,27c1.128,4.43,2.148,15.337,2.283,18.233a15.873,15.873,0,0,1-.319,4.539,32.382,32.382,0,0,0-.858,3.924c-1.275,4.078-5.252,8.577-6.66,10.145-3.065,3.417,4.117,7.408,9.487,4.814,1.777-.857,2.855-4.677,3.56-7.55.445-1.809,3.48-5.159,3.958-6.886,1.074-3.889-.921-7.8-.812-8.99,1.173-12.812,8.1-32.2,5.516-44.521,0,0,4.955-38.609,5.384-48.557.432,9.949,5.387,48.557,5.387,48.557-2.586,12.319,4.342,31.709,5.514,44.521.11,1.185-1.887,5.1-.811,8.99.477,1.727,3.512,5.077,3.957,6.886.7,2.873,1.783,6.694,3.561,7.55,5.369,2.594,12.553-1.4,9.486-4.814-1.409-1.567-5.384-6.067-6.66-10.145a32.154,32.154,0,0,0-.858-3.924,15.92,15.92,0,0,1-.318-4.539c.135-2.9,1.154-13.8,2.283-18.233,3.015-11.843,2.586-27,2.586-27a55.852,55.852,0,0,1,0-17.29c4.952-24.872-.864-58.744-.864-58.744-.838-6.756-1.492-15.48-1.851-27.45a122.24,122.24,0,0,0,3.924,19.4c1.277,6.363,9.166,30.4,10.14,35.558.114.607.195,2.471.195,2.471-3.873,6.568-.936,15.191-.936,15.191,1.205,3.22,3.208,2.19,3.208,2.19L272.538,224a14.779,14.779,0,0,1,.267-5.533l2.8,5.533-.931,8.113c-.669,3.22,1.733.771,1.733.771a30.392,30.392,0,0,0,3.739-9.655Z" transform="translate(-185.61 -69.83)" fill="#64b804"/>
  </g>
</svg>
