<svg xmlns="http://www.w3.org/2000/svg" width="26.601" height="76.409" viewBox="0 0 26.601 76.409">
  <path id="Path_50838" data-name="Path 50838" d="M75.88,14.8c-.1-.057-.207-.11-.31-.167a.972.972,0,0,0-.448-.244A174.005,174.005,0,0,0,58.864,6.562q-1.78-1.03-3.6-2L53.3,3.359a1.037,1.037,0,0,0-.651-.163Q49.389,1.559,46.02.112A1.1,1.1,0,0,0,44.913,2l.048.034a1.068,1.068,0,0,0,.419,1.385L59.2,10.984c-1.177-.062-2.355-.113-3.533-.169A420.072,420.072,0,0,0,4.835,4.323c-1.4-.092-1.356,1.9-.1,2.16L1.748,6.169c-1.4-.147-1.388,2.044,0,2.19L16.016,9.873q-4.831,0-9.661.048a1.1,1.1,0,0,0-.422,2.1c-.732-.045-1.464-.085-2.2-.131a.7.7,0,0,0-.767.766c-.089.009-.179.015-.267.022-1.383.116-1.429,2.226,0,2.19l3.235-.082-4.881.276c-1.4.078-1.419,2.227,0,2.19.324-.009.649-.022.973-.031a.943.943,0,0,0,.895.483c13.718-.343,27.437-.776,41.1-1.932q11.215.414,22.44.6l-22.488,3.62a.933.933,0,0,0-.77,1.1c-.883.267-.779,1.375-.131,1.857-1.654.5-3.306,1.009-4.952,1.543A1.1,1.1,0,0,0,38.7,26.6q10.262-2.047,20.344-4.8,2.685-.577,5.339-1.271C67.6,20.067,70.806,19.51,74,18.841a.945.945,0,0,0,.644-1.452c.221-.079.444-.151.667-.232a1.132,1.132,0,0,0,.672-.575A1.081,1.081,0,0,0,75.88,14.8Z" transform="translate(26.613 0.004) rotate(90)" fill="#e4754b"/>
</svg>
