<svg xmlns="http://www.w3.org/2000/svg" xmlns:xlink="http://www.w3.org/1999/xlink" width="93.926" height="259.801" viewBox="0 0 93.926 259.801">
  <defs>
    <filter id="Path_51096" x="0" y="0" width="93.926" height="259.801" filterUnits="userSpaceOnUse">
      <feOffset input="SourceAlpha"/>
      <feGaussianBlur stdDeviation="1.5" result="blur"/>
      <feFlood flood-opacity="0.161"/>
      <feComposite operator="in" in2="blur"/>
      <feComposite in="SourceGraphic"/>
    </filter>
  </defs>
  <g transform="matrix(1, 0, 0, 1, 0, 0)" filter="url(#Path_51096)">
    <path id="Path_51096-2" data-name="Path 51096" d="M136.658,205.151h0a246.345,246.345,0,0,0-2.053-57.393c-1.055-6.821-3.82-12.752-5.026-16.6-3.211-10.242-23.807-22.626-23.807-22.626-2.249-1.028-2.534-6.153-1.988-8.226.021-.078.666-5.781,1.006-7.462a.549.549,0,0,0,.317.124c.714,0,1.294-1.661,1.294-3.711,0-1.807-.451-3.31-1.048-3.64l-.331-3.193a8.863,8.863,0,0,0-9.047-8.1c-3.017,0-8.382,1.036-9.224,8.1L86.541,85.6c-.627.26-1.107,1.791-1.107,3.658,0,2.05.579,3.711,1.294,3.711a.541.541,0,0,0,.3-.11c.263,1.447,1,7.369,1.022,7.447.546,2.072.262,7.2-1.988,8.226,0,0-20.6,12.384-23.806,22.626-1.207,3.846-3.971,9.777-5.026,16.6a246.234,246.234,0,0,0-2.053,57.393h0s-2.143,11.387-1.645,17.158c.217,2.514.622,4.232,3.48,9.333,0,0,2.236,2.367,1.615-.746l-.868-7.841,2.609-5.35a14.841,14.841,0,0,1,.248,5.35l-.5,2.866s1.863.993,2.983-2.121c0,0,2.331-5.008-.575-13.748a47.386,47.386,0,0,1,.339-4.9C64.185,201.923,68.951,185.671,69,172l3.7-25.267s-2.966,25.421-3.042,38.685c0,0-1.963,24.779,2.589,45.052,0,0,.586,12.633,1.643,19.686,0,0-3.174,21.446,1.853,41.719l1.2,9.244c.112,2.313.507,3.647.185,4.714a17.932,17.932,0,0,0-.594,3.633,36.1,36.1,0,0,1-5.72,10.3c-2.866,3.251,3.852,7.049,8.878,4.581,1.663-.815,2.672-4.451,3.331-7.185.415-1.723,2.9-5.095,3.7-6.557,1.415-2.564.472-6.537.453-7.674v0a1.142,1.142,0,0,0,.118-.4c1.8-19.615,6.7-38.269,5.108-49.139a126.718,126.718,0,0,0,3.5-24.029,126.622,126.622,0,0,0,3.5,24.029c-1.587,10.87,3.306,29.524,5.108,49.139a1.1,1.1,0,0,0,.118.4v0c-.018,1.138-.961,5.111.452,7.674.808,1.463,3.289,4.834,3.7,6.557.659,2.734,1.668,6.37,3.331,7.185,5.025,2.468,11.743-1.33,8.876-4.581a36.074,36.074,0,0,1-5.718-10.3,17.929,17.929,0,0,0-.6-3.633c-.32-1.067.074-2.4.186-4.714l1.2-9.244c5.026-20.272,1.852-41.719,1.852-41.719,1.059-7.053,1.642-19.686,1.642-19.686,4.554-20.272,2.591-45.052,2.591-45.052-.077-13.265-3.042-38.685-3.042-38.685l3.7,25.267c.047,13.673,4.816,29.925,6.141,33.154a47.619,47.619,0,0,1,.341,4.9c-2.907,8.739-.577,13.748-.577,13.748,1.121,3.114,2.984,2.121,2.984,2.121l-.5-2.866a14.817,14.817,0,0,1,.248-5.35l2.609,5.35-.867,7.841c-.622,3.113,1.614.746,1.614.746,2.857-5.1,3.262-6.819,3.479-9.333C138.8,216.538,136.658,205.151,136.658,205.151Z" transform="translate(-48.95 -69.83)" fill="#f6d500"/>
  </g>
</svg>
