<svg xmlns="http://www.w3.org/2000/svg" width="26.77" height="26.77" viewBox="0 0 26.77 26.77">
  <g id="login" transform="translate(0 -0.001)">
    <g id="Group_3" data-name="Group 3" transform="translate(0 0.001)">
      <g id="Group_2" data-name="Group 2" transform="translate(0 0)">
        <circle id="Ellipse_5" data-name="Ellipse 5" cx="0.858" cy="0.858" r="0.858" transform="translate(16.294 16.48)" fill="#acacac"/>
        <path id="Path_7" data-name="Path 7" d="M12.444,24.68H4.183a2.094,2.094,0,0,1-2.091-2.091V14.013a2.094,2.094,0,0,1,2.091-2.091H19.241a2.094,2.094,0,0,1,2.091,2.091V16.1a1.046,1.046,0,0,0,2.091,0V14.013a4.188,4.188,0,0,0-4.183-4.183H17.984V6.143A6.216,6.216,0,0,0,11.71,0,6.216,6.216,0,0,0,5.436,6.143V9.831H4.183A4.188,4.188,0,0,0,0,14.013v8.575a4.188,4.188,0,0,0,4.183,4.183h8.261a1.046,1.046,0,0,0,0-2.091ZM7.527,6.143a4.123,4.123,0,0,1,4.183-4.05,4.123,4.123,0,0,1,4.183,4.05V9.831H7.527Z" transform="translate(0 -0.001)" fill="#acacac"/>
        <path id="Path_8" data-name="Path 8" d="M275.62,322.195a1.046,1.046,0,0,0-1.459.242l-5.154,7.2a.6.6,0,0,1-.86.045l-3.331-3.251a1.046,1.046,0,0,0-1.461,1.5l3.337,3.256.009.009a2.7,2.7,0,0,0,1.855.741c.059,0,.118,0,.177-.006a2.7,2.7,0,0,0,1.917-1l.035-.046,5.175-7.229A1.046,1.046,0,0,0,275.62,322.195Z" transform="translate(-249.287 -305.163)" fill="#acacac"/>
        <ellipse id="Ellipse_6" data-name="Ellipse 6" cy="0.858" ry="0.858" transform="translate(14.579 16.48)" fill="#acacac"/>
        <circle id="Ellipse_7" data-name="Ellipse 7" cx="0.858" cy="0.858" r="0.858" transform="translate(4.288 16.48)" fill="#acacac"/>
        <circle id="Ellipse_8" data-name="Ellipse 8" cx="0.858" cy="0.858" r="0.858" transform="translate(9.433 16.48)" fill="#acacac"/>
      </g>
    </g>
  </g>
</svg>
