<svg xmlns="http://www.w3.org/2000/svg" width="36.031" height="34.75" viewBox="0 0 36.031 34.75">
  <g id="phone_7_" data-name="phone (7)" transform="translate(0 -9.1)">
    <g id="Group_26" data-name="Group 26" transform="translate(0 9.1)">
      <g id="Group_25" data-name="Group 25">
        <path id="Path_14148" data-name="Path 14148" d="M34.65,15.817a15.658,15.658,0,0,0-6.817-4.835,26.674,26.674,0,0,0-19.609-.029A15.652,15.652,0,0,0,1.39,15.766,6.181,6.181,0,0,0,.28,21.448a2.978,2.978,0,0,0,2.854,2.058l4.5,0h0a3.006,3.006,0,0,0,2.313-1.078A2.957,2.957,0,0,0,10.6,20c0-.025-.01-.051-.017-.076L10.343,19a18.361,18.361,0,0,1,7.676-1.815,18.849,18.849,0,0,1,7.673,1.851l-.241.915c-.007.026-.013.052-.018.078a2.958,2.958,0,0,0,.637,2.433,3.006,3.006,0,0,0,2.315,1.085l4.5,0h0a2.977,2.977,0,0,0,2.855-2.049A6.188,6.188,0,0,0,34.65,15.817Zm-.95,5.029a.845.845,0,0,1-.809.56h0l-4.5,0a.862.862,0,0,1-.664-.309.805.805,0,0,1-.182-.637l.448-1.7a1.075,1.075,0,0,0-.5-1.2,20.814,20.814,0,0,0-9.463-2.513h-.085a20.409,20.409,0,0,0-9.4,2.476,1.075,1.075,0,0,0-.5,1.2l.439,1.706a.806.806,0,0,1-.183.637.862.862,0,0,1-.664.307h0l-4.5,0a.845.845,0,0,1-.809-.562,4.067,4.067,0,0,1,.8-3.757C5.579,13.68,11.828,11.25,18,11.25h.034c6.174.009,12.432,2.461,14.881,5.831A4.073,4.073,0,0,1,33.7,20.845Z" transform="translate(0 -9.1)" fill="#acacac"/>
      </g>
    </g>
    <g id="Group_28" data-name="Group 28" transform="translate(3.76 21.752)">
      <g id="Group_27" data-name="Group 27">
        <path id="Path_14149" data-name="Path 14149" d="M77.861,195.288,74.5,191.764a1.075,1.075,0,0,0-.779-.334H71.557v-1.465a1.075,1.075,0,1,0-2.15,0v1.465H65.964v-1.465a1.075,1.075,0,1,0-2.15,0v1.465H61.645a1.075,1.075,0,0,0-.779.334l-3.356,3.524a14.73,14.73,0,0,0-4.081,10.2v4.423a1.075,1.075,0,0,0,1.075,1.075H80.866a1.075,1.075,0,0,0,1.075-1.075v-4.423A14.729,14.729,0,0,0,77.861,195.288ZM55.58,208.837v-3.348a12.588,12.588,0,0,1,3.487-8.718l3.038-3.19H73.265l3.038,3.19a12.589,12.589,0,0,1,3.487,8.718v3.348Z" transform="translate(-53.43 -188.89)" fill="#acacac"/>
      </g>
    </g>
    <g id="Group_30" data-name="Group 30" transform="translate(12.389 28.666)">
      <g id="Group_29" data-name="Group 29">
        <path id="Path_14150" data-name="Path 14150" d="M181.673,287.135a5.627,5.627,0,1,0,5.627,5.627A5.633,5.633,0,0,0,181.673,287.135Zm0,9.1a3.477,3.477,0,1,1,3.477-3.477A3.48,3.48,0,0,1,181.673,296.238Z" transform="translate(-176.046 -287.135)" fill="#acacac"/>
      </g>
    </g>
  </g>
</svg>
