<svg xmlns="http://www.w3.org/2000/svg" xmlns:xlink="http://www.w3.org/1999/xlink" width="75.277" height="256.549" viewBox="0 0 75.277 256.549">
  <defs>
    <filter id="Path_51058" x="0" y="0" width="75.277" height="256.549" filterUnits="userSpaceOnUse">
      <feOffset input="SourceAlpha"/>
      <feGaussianBlur stdDeviation="1.5" result="blur"/>
      <feFlood flood-opacity="0.161"/>
      <feComposite operator="in" in2="blur"/>
      <feComposite in="SourceGraphic"/>
    </filter>
  </defs>
  <g transform="matrix(1, 0, 0, 1, 0, 0)" filter="url(#Path_51058)">
    <path id="Path_51058-2" data-name="Path 51058" d="M392.384,203.108l-.157-4.841v-5.489c-.077-8.187,1.016-19.126.229-25.473-.515-4.148-1.926-9.727-1.949-13.063-.116-15.805.024-24.951-2.521-32.4-2.446-7.151-9.707-7.859-9.707-7.859-3.439-.349-9.455-3.638-9.455-3.638-1.146-1.741-2.419-7.795-1.848-10.354a11.051,11.051,0,0,1,1.49-2.484,20.989,20.989,0,0,0,1.544-5.309.532.532,0,0,0,.316.127c.718,0,1.3-1.713,1.3-3.831,0-1.865-.452-3.416-1.051-3.758l-.332-3.3c-.719-6.568-6.05-6.07-9.081-6.07s-8.41-1.218-9.259,6.07l-.206,3.278c-.628.27-1.113,1.85-1.113,3.776,0,2.117.582,3.831,1.3,3.831a.532.532,0,0,0,.3-.112c.29,1.635.682,3.728,1,4.9.22.815,1.409,2.21,1.642,3.069.666,2.453-.179,8.418-1.326,10.159,0,0-6.014,3.289-9.454,3.638,0,0-7.258.708-9.706,7.859-2.545,7.445-2.406,16.59-2.522,32.4-.022,3.335-1.432,8.914-1.946,13.063-.788,6.347.305,17.286.228,25.473v5.489l-.157,4.841L328.025,218.3a34.225,34.225,0,0,0,3.164,9.656s2.033,2.447,1.467-.773l-.789-8.111,2.374-5.535a17.425,17.425,0,0,1,.225,5.535l-.453,2.963s1.694,1.028,2.71-2.19c0,0,2.487-8.625-.789-15.192l.7-6.475,4.279-23.577s1.452-4.291.992-11.606c0,0,2.791-6.222,2.057-27.767-.044-1-.068-1.56-.068-1.56.042.4.062.926.068,1.56.249,5.664,1.062,25.593.878,38.506-.077,5.4-.683,7.859-1.481,15.777-1.125,11.15-3.433,20.724-1.53,32.4,0,0,2.6,12.976,3.516,18.116,0,0-.286,10.618-.286,14.8,0,6.748.491,13.076.63,18.808.1,4.085,3.915,25.8,2.567,30.663a33.138,33.138,0,0,0-.734,3.7c-1.087,3.832-4.482,8.068-5.687,9.542-2.615,3.214,3.516,6.966,8.1,4.528,1.518-.806,2.439-4.4,3.04-7.1.379-1.7,2.973-4.855,3.379-6.478.917-3.659-.672-7.335-.694-8.458a94.229,94.229,0,0,1,1.375-17.353c1.035-5.324.344-9.688,0-21.814-.125-4.445,1.033-7.251.688-17.134-.291-8.391,2.775-33.044,2.551-41.541a3.343,3.343,0,0,0,.887.139,3.083,3.083,0,0,0,.889-.139c-.225,8.5,2.842,33.15,2.549,41.541-.343,9.883.815,12.689.69,17.134-.345,12.126-1.035,16.49,0,21.814a94.133,94.133,0,0,1,1.375,17.353c-.022,1.123-1.611,4.8-.694,8.458.406,1.623,3,4.777,3.378,6.478.6,2.7,1.525,6.3,3.04,7.1,4.585,2.438,10.716-1.314,8.1-4.528-1.2-1.475-4.6-5.711-5.686-9.542a33.283,33.283,0,0,0-.732-3.7c-1.349-4.86,2.467-26.578,2.567-30.663.137-5.732.63-12.06.63-18.808,0-4.186-.287-14.8-.287-14.8.918-5.14,3.516-18.116,3.516-18.116,1.9-11.673-.4-21.247-1.529-32.4-.8-7.918-1.405-10.379-1.481-15.777-.186-12.913.628-32.842.876-38.506.006-.634.028-1.164.068-1.56,0,0-.025.565-.068,1.56-.732,21.545,2.058,27.767,2.058,27.767-.46,7.316.993,11.606.993,11.606l4.28,23.577.7,6.475c-3.275,6.567-.789,15.192-.789,15.192,1.016,3.218,2.711,2.19,2.711,2.19l-.453-2.963a17.384,17.384,0,0,1,.225-5.535l2.372,5.535-.789,8.111c-.565,3.22,1.467.773,1.467.773A34.251,34.251,0,0,0,394.3,218.3Z" transform="translate(-323.52 -70.8)" fill="#6899d1"/>
  </g>
</svg>
