<svg xmlns="http://www.w3.org/2000/svg" width="26.453" height="34.75" viewBox="0 0 26.453 34.75">
  <g id="user" transform="translate(0 0)">
    <g id="Group_1" data-name="Group 1" transform="translate(0 0)">
      <path id="Path_6" data-name="Path 6" d="M82.392,22.565a4.584,4.584,0,0,1-4.622-4.172,7.84,7.84,0,0,0,1.807-1.786,10.856,10.856,0,0,0,1.956-5.1.778.778,0,0,0,.2-.276,8.421,8.421,0,0,0,.653-3.277c0-4.384-3.307-7.95-7.372-7.95a6.844,6.844,0,0,0-3.069.728,5.392,5.392,0,0,0-1.085.195,6.1,6.1,0,0,0-3.825,3.485A8.656,8.656,0,0,0,66.6,10.09a9.151,9.151,0,0,0,.4,1.2.778.778,0,0,0,.184.267,9.77,9.77,0,0,0,3.754,6.826,4.586,4.586,0,0,1-4.623,4.178,5.377,5.377,0,0,0-5.187,5.366v6.037a.782.782,0,0,0,.782.782H86.8a.782.782,0,0,0,.782-.782V27.931A5.377,5.377,0,0,0,82.392,22.565ZM71.292,2.426a3.856,3.856,0,0,1,.9-.145.782.782,0,0,0,.329-.089,5.317,5.317,0,0,1,2.494-.627c3.2,0,5.807,2.864,5.807,6.385,0,.106,0,.211-.008.316a3.411,3.411,0,0,0-2.437-1.023H73.04a1.457,1.457,0,0,1-1.353-.914.959.959,0,0,0-1.818.12A7.257,7.257,0,0,1,68.1,9.617C67.312,6.38,68.732,3.166,71.292,2.426Zm-.681,13.533a9.2,9.2,0,0,1-1.9-4.762,8.866,8.866,0,0,0,2.276-3.19,3.048,3.048,0,0,0,.243.2,3,3,0,0,0,1.807.6h5.333a1.859,1.859,0,0,1,1.7,1.1c0,.006,0,.011,0,.016,0,4.417-2.563,8.01-5.713,8.01A4.894,4.894,0,0,1,70.611,15.959Zm1.8,3.2a5.694,5.694,0,0,0,3.89,0,6.127,6.127,0,0,0,2.276,3.689L74.465,28.7a.135.135,0,0,1-.221,0l-4.11-5.852A6.128,6.128,0,0,0,72.409,19.155Zm13.606,14.03H62.692V27.931A3.81,3.81,0,0,1,66.5,24.125a6.707,6.707,0,0,0,2.282-.483L72.963,29.6a1.7,1.7,0,0,0,1.391.723h0a1.7,1.7,0,0,0,1.391-.723l4.182-5.956a6.442,6.442,0,0,0,2.28.482,3.81,3.81,0,0,1,3.806,3.806Z" transform="translate(-61.127)" fill="#acacac"/>
    </g>
  </g>
</svg>
